<?xml version="1.0" encoding="UTF-8" standalone="no"?>
<svg
   width="150"
   height="50"
   version="1.1"
   id="svg3"
   xmlns="http://www.w3.org/2000/svg"
   xmlns:svg="http://www.w3.org/2000/svg">
  <defs
     id="defs3" />
  <text
     xml:space="preserve"
     style="font-style:normal;font-variant:normal;font-weight:600;font-stretch:normal;font-size:17.438px;line-height:1;font-family:'SF Pro Display';-inkscape-font-specification:'SF Pro Display, Semi-Bold';font-variant-ligatures:normal;font-variant-caps:normal;font-variant-numeric:normal;font-variant-east-asian:normal;text-align:start;writing-mode:lr-tb;direction:ltr;text-anchor:start;fill:#ffffff;fill-opacity:1;stroke:none;stroke-width:0;stroke-linecap:square;stroke-dasharray:none"
     x="51.918636"
     y="21.786837"
     id="text5"><tspan
       id="tspan5"
       x="51.918636"
       y="21.786837"
       style="stroke-width:0">Nyoom</tspan><tspan
       x="51.918636"
       y="39.224838"
       id="tspan8"
       style="stroke-width:0">Engineering</tspan><tspan
       x="51.918636"
       y="56.662834"
       id="tspan7"
       style="stroke-width:0" /></text>
  <circle
     style="fill:none;fill-opacity:1;stroke:#f2f4f8;stroke-width:2.924;stroke-linecap:square;stroke-dasharray:none;stroke-opacity:1"
     id="path8"
     cx="26.25"
     cy="24.750175"
     r="18.788176" />
  <path
     d="m 18.193996,10.978171 c -4.727,2.77 -7.903,7.910001 -7.887,13.774001 0.027,8.77 7.18,15.887 15.953,15.863 8.773,-0.023 15.89,-7.18 15.867,-15.953 -0.023,-8.77 -7.183,-15.8870007 -15.953,-15.8630007 -1.04694,0.00494 -2.090895,0.1121154 -3.117,0.32 -0.129,0.031 -0.2,0.164 -0.168,0.29 l 0.55,2.2139997 c 0.02885,0.131187 0.159021,0.213777 0.29,0.184 v 0.003 c 0.808307,-0.15668 1.629649,-0.23637 2.453,-0.238 7.242,-0.02 13.152,5.856001 13.172,13.098001 0.02,7.246 -5.86,13.156 -13.102,13.172 -7.242,0.023 -13.152,-5.856 -13.172,-13.098 -0.011,-4.797 2.563,-9.008 6.407,-11.308001 0.117132,-0.06399 0.164753,-0.207728 0.109,-0.329 l -1.07,-2.027 c -0.06367,-0.119657 -0.212131,-0.165269 -0.332,-0.102"
     id="path1"
     style="fill:#ff7eb6;fill-opacity:1" />
  <path
     d="m 22.779996,33.080172 -1.082,2.02 c -0.063,0.12 -0.028,0.28 0.101,0.328 a 11.38,11.38 0 0 0 4.32,0.883 c 6.399,0.054 11.645,-5.11 11.7,-11.508 v -0.098 c 0,-6.344 -5.16,-11.547001 -11.504,-11.602001 -6.399,-0.05 -11.649,5.110001 -11.7,11.508001 l -0.003,0.098 c 0,3.031 1.18,5.797 3.101,7.871 0.09,0.102 0.246,0.121 0.348,0.027 l 1.554,-1.722 c 0.09,-0.102 0.07,-0.254 -0.015,-0.344 l 0.004,-0.004 a 8.77,8.77 0 0 1 -2.219,-5.828 v -0.074 c 0.043,-4.871 4.035,-8.797 8.906,-8.758 4.828,0.039 8.758,4 8.758,8.828 v 0.078 c -0.043,4.867 -4.039,8.797 -8.906,8.754 a 8.775,8.775 0 0 1 -3.031,-0.566 0.257,0.257 0 0 0 -0.332,0.109"
     id="path2"
     style="fill:#33b1ff;fill-opacity:1" />
  <path
     d="m 20.540769,24.676644 -1.428445,-0.154561 c -0.08455,-0.0085 -0.169346,0.04952 -0.166957,0.135753 a 7.1352288,7.1352288 0 0 0 0.501352,2.718787 c 1.471577,3.732696 5.705801,5.569506 9.438143,4.098733 l 0.05708,-0.02264 C 32.62998,29.962655 34.442735,25.740863 32.984644,22.039913 31.510727,18.308165 27.2779,16.468085 23.5465,17.941183 l -0.05773,0.02105 c -1.762046,0.711905 -3.092879,2.047566 -3.847385,3.651459 -0.03816,0.07625 -0.01255,0.17143 0.0659,0.208695 l 1.366071,0.498943 c 0.08042,0.02835 0.164113,-0.01887 0.19644,-0.08956 l 0.0024,0.0024 a 5.4987658,5.4987658 0 0 1 2.866914,-2.658909 l 0.04296,-0.01756 c 2.841813,-1.119093 6.061791,0.279499 7.183208,3.120377 1.11132,2.815871 -0.268312,6.030899 -3.075029,7.164884 l -0.04542,0.01812 c -2.83937,1.118076 -6.06261,-0.281887 -7.18076,-3.121378 A 5.5019009,5.5019009 0 0 1 20.681242,24.84469 0.16113828,0.16113828 0 0 0 20.5399,24.677283"
     id="path9"
     style="fill:#be95ff;fill-opacity:1;stroke-width:1" />
</svg>
