<?xml version="1.0" encoding="UTF-8" standalone="no"?>
<!-- Created with Inkscape (http://www.inkscape.org/) -->

<svg
   xmlns:dc="http://purl.org/dc/elements/1.1/"
   xmlns:cc="http://creativecommons.org/ns#"
   xmlns:rdf="http://www.w3.org/1999/02/22-rdf-syntax-ns#"
   xmlns:svg="http://www.w3.org/2000/svg"
   xmlns="http://www.w3.org/2000/svg"
   xmlns:sodipodi="http://sodipodi.sourceforge.net/DTD/sodipodi-0.dtd"
   xmlns:inkscape="http://www.inkscape.org/namespaces/inkscape"
   width="80"
   height="80"
   viewBox="0 0 21.166666 21.166667"
   version="1.1"
   id="svg6190"
   inkscape:version="0.92.2 5c3e80d, 2017-08-06"
   sodipodi:docname="hotkey_fast_forward.svg">
  <defs
     id="defs6184">
    <filter
       inkscape:collect="always"
       style="color-interpolation-filters:sRGB"
       id="filter8671"
       x="-0.048"
       width="1.096"
       y="-0.048"
       height="1.096">
      <feGaussianBlur
         inkscape:collect="always"
         stdDeviation="0.29633333"
         id="feGaussianBlur8673" />
    </filter>
  </defs>
  <sodipodi:namedview
     id="base"
     pagecolor="#ffffff"
     bordercolor="#666666"
     borderopacity="1.0"
     inkscape:pageopacity="0.0"
     inkscape:pageshadow="2"
     inkscape:zoom="5.5341463"
     inkscape:cx="11.539476"
     inkscape:cy="25.221585"
     inkscape:document-units="px"
     inkscape:current-layer="layer3"
     showgrid="false"
     units="px"
     inkscape:pagecheckerboard="true"
     inkscape:window-width="1920"
     inkscape:window-height="1025"
     inkscape:window-x="0"
     inkscape:window-y="0"
     inkscape:window-maximized="1" />
  <metadata
     id="metadata6187">
    <rdf:RDF>
      <cc:Work
         rdf:about="">
        <dc:format>image/svg+xml</dc:format>
        <dc:type
           rdf:resource="http://purl.org/dc/dcmitype/StillImage" />
        <dc:title></dc:title>
      </cc:Work>
    </rdf:RDF>
  </metadata>
  <g
     inkscape:label="button"
     inkscape:groupmode="layer"
     id="layer1"
     transform="translate(0,-275.83332)" />
  <g
     inkscape:groupmode="layer"
     id="layer3"
     inkscape:label="label"
     style="display:inline"
     transform="translate(0,4.2333333)">
    <circle
       transform="matrix(1.2857143,0,0,1.2857143,-0.3023811,-364.6214)"
       style="opacity:1;vector-effect:none;fill:#000002;fill-opacity:1;stroke:none;stroke-width:1.778;stroke-linecap:butt;stroke-linejoin:miter;stroke-miterlimit:4;stroke-dasharray:none;stroke-dashoffset:0;stroke-opacity:1;filter:url(#filter8671)"
       id="path6735-8"
       cx="8.4666672"
       cy="288.53333"
       r="7.4083333" />
    <circle
       style="opacity:1;vector-effect:none;fill:#282828;fill-opacity:1;stroke:#c0c0c0;stroke-width:1.58749999;stroke-linecap:butt;stroke-linejoin:miter;stroke-miterlimit:4;stroke-dasharray:none;stroke-dashoffset:0;stroke-opacity:1"
       id="path6735"
       cx="10.583334"
       cy="6.3500223"
       r="8.5044641" />
    <g
       id="g7072"
       transform="matrix(1.2857144,0,0,1.2857227,-21.553098,-1.8560399)">
      <path
         id="Resume"
         d="M 25.029193,5.9738235 C 24.754946,5.7908699 21.90168,3.5188583 21.833946,3.4838873 c -0.05743,-0.029449 -0.122582,-0.046383 -0.19142,-0.046383 -0.2286,0 -0.413026,0.1836899 -0.416339,0.4115536 -3.68e-4,0.00184 -0.0015,0.00331 -0.0015,0.00515 v 5.055336 c 0,0.2308087 0.187003,0.4178116 0.417812,0.4178116 0.06921,0 0.133994,-0.016933 0.191788,-0.046383 0.0681,-0.034971 2.921737,-2.3080869 3.195983,-2.4906724 0.1524,-0.1016 0.243693,-0.2547362 0.243693,-0.4078724 0,-0.1531363 -0.09166,-0.3066406 -0.244797,-0.4086087 z"
         inkscape:connector-curvature="0"
         style="fill:#c0c0c0;fill-opacity:1;stroke-width:0.26458332"
         sodipodi:nodetypes="ccscsssccsc" />
      <path
         sodipodi:nodetypes="ccscsssccsc"
         style="fill:#c0c0c0;fill-opacity:1;stroke-width:0.26458332"
         inkscape:connector-curvature="0"
         d="M 29.446584,5.9738235 C 29.172337,5.7908699 26.319071,3.5188583 26.251337,3.4838873 c -0.05743,-0.029449 -0.122582,-0.046383 -0.19142,-0.046383 -0.2286,0 -0.413026,0.1836899 -0.416339,0.4115536 -3.68e-4,0.00184 -0.0015,0.00331 -0.0015,0.00515 v 5.055336 c 0,0.2308087 0.187002,0.4178116 0.417811,0.4178116 0.06921,0 0.133994,-0.016933 0.191789,-0.046383 0.0681,-0.034971 2.921736,-2.3080869 3.195982,-2.4906724 0.1524,-0.1016 0.243693,-0.2547362 0.243693,-0.4078724 0,-0.1531363 -0.09166,-0.3066406 -0.244797,-0.4086087 z"
         id="path817" />
    </g>
  </g>
</svg>
