<?xml version="1.0" encoding="UTF-8" standalone="no"?>
<!-- Created with Inkscape (http://www.inkscape.org/) -->

<svg
   xmlns:dc="http://purl.org/dc/elements/1.1/"
   xmlns:cc="http://creativecommons.org/ns#"
   xmlns:rdf="http://www.w3.org/1999/02/22-rdf-syntax-ns#"
   xmlns:svg="http://www.w3.org/2000/svg"
   xmlns="http://www.w3.org/2000/svg"
   xmlns:sodipodi="http://sodipodi.sourceforge.net/DTD/sodipodi-0.dtd"
   xmlns:inkscape="http://www.inkscape.org/namespaces/inkscape"
   width="80"
   height="80"
   viewBox="0 0 21.166666 21.166667"
   version="1.1"
   id="svg6190"
   inkscape:version="0.92.2 5c3e80d, 2017-08-06"
   sodipodi:docname="hotkey_menu.svg">
  <defs
     id="defs6184">
    <filter
       inkscape:collect="always"
       style="color-interpolation-filters:sRGB"
       id="filter8685"
       x="-0.048"
       width="1.096"
       y="-0.048"
       height="1.096">
      <feGaussianBlur
         inkscape:collect="always"
         stdDeviation="0.29633333"
         id="feGaussianBlur8687" />
    </filter>
  </defs>
  <sodipodi:namedview
     id="base"
     pagecolor="#ffffff"
     bordercolor="#666666"
     borderopacity="1.0"
     inkscape:pageopacity="0.0"
     inkscape:pageshadow="2"
     inkscape:zoom="5.5341463"
     inkscape:cx="42.204662"
     inkscape:cy="25.221585"
     inkscape:document-units="px"
     inkscape:current-layer="layer3"
     showgrid="false"
     units="px"
     inkscape:pagecheckerboard="true"
     inkscape:window-width="1920"
     inkscape:window-height="1025"
     inkscape:window-x="0"
     inkscape:window-y="0"
     inkscape:window-maximized="1" />
  <metadata
     id="metadata6187">
    <rdf:RDF>
      <cc:Work
         rdf:about="">
        <dc:format>image/svg+xml</dc:format>
        <dc:type
           rdf:resource="http://purl.org/dc/dcmitype/StillImage" />
        <dc:title></dc:title>
      </cc:Work>
    </rdf:RDF>
  </metadata>
  <g
     inkscape:label="button"
     inkscape:groupmode="layer"
     id="layer1"
     transform="translate(0,-275.83332)" />
  <g
     inkscape:groupmode="layer"
     id="layer3"
     inkscape:label="label"
     style="display:inline"
     transform="translate(0,4.2333333)">
    <circle
       transform="matrix(1.2857143,0,0,1.2857143,-0.3023811,-364.6214)"
       style="opacity:1;vector-effect:none;fill:#000002;fill-opacity:1;stroke:none;stroke-width:1.778;stroke-linecap:butt;stroke-linejoin:miter;stroke-miterlimit:4;stroke-dasharray:none;stroke-dashoffset:0;stroke-opacity:1;filter:url(#filter8685)"
       id="path6735-8"
       cx="8.4666672"
       cy="288.53333"
       r="7.4083333" />
    <circle
       style="opacity:1;vector-effect:none;fill:#282828;fill-opacity:1;stroke:#c0c0c0;stroke-width:1.58749999;stroke-linecap:butt;stroke-linejoin:miter;stroke-miterlimit:4;stroke-dasharray:none;stroke-dashoffset:0;stroke-opacity:1"
       id="path6735"
       cx="10.583334"
       cy="6.3500223"
       r="8.5044641" />
    <path
       style="fill:#c0c0c0;fill-opacity:1;stroke:#c0c0c0;stroke-width:0;stroke-miterlimit:4;stroke-dasharray:none;stroke-opacity:1"
       d="M 7.085201,9.0035104 7.8168747,8.1674038 6.7761144,8.1649609 C 6.2036972,8.1637357 5.7354767,8.1614895 5.7356251,8.1603324 5.7357372,8.159107 5.7984965,7.9082541 5.8750046,7.6029696 L 6.0141165,7.0478344 H 4.896938 3.7797618 L 4.163857,5.5114621 4.5479521,3.9750862 H 4.9625106 5.3770677 L 5.1677103,4.8111938 C 5.0525695,5.2710504 4.9582315,5.6483544 4.9580806,5.6496412 c -1.122e-4,0.00129 0.3158169,0.00244 0.7021515,0.00244 h 0.7024261 l 0.00656,-0.025761 c 0.00363,-0.014166 0.097738,-0.3904159 0.2092031,-0.8361062 l 0.20265,-0.8103272 0.9984594,-0.00468 0.9984604,-0.00468 L 8.3474442,3.4412561 C 8.1106391,3.1501506 7.9084514,2.9003708 7.8981342,2.8862045 l -0.01876,-0.025761 H 8.2920998 8.7048267 L 9.192728,3.4178494 9.6806305,3.9752537 h 0.9027065 0.902707 L 11.973946,3.417849 12.461848,2.8604432 h 0.412725 0.412725 l -0.01876,0.02576 c -0.01029,0.014166 -0.212508,0.2639461 -0.449311,0.5550609 l -0.430549,0.5293002 0.998461,0.00468 0.99846,0.00468 0.202663,0.8103416 c 0.111459,0.4456902 0.205608,0.8219398 0.209202,0.8361062 l 0.0064,0.025761 h 0.702427 c 0.386337,0 0.702303,-9.28e-4 0.702153,-0.00244 -1.12e-4,-0.00129 -0.0945,-0.3785908 -0.209631,-0.8384475 L 15.789599,3.9750862 h 0.414556 0.414558 l 0.384096,1.5363759 0.384095,1.5363723 h -1.11718 -1.117176 l 0.139113,0.5550646 c 0.0765,0.3052845 0.139231,0.5560961 0.139379,0.5573625 1.1e-4,0.00129 -0.468075,0.00347 -1.04049,0.00463 l -1.04076,0.00244 0.731673,0.8361079 0.731674,0.8361065 -0.634746,-6.17e-4 L 13.543643,9.8383092 12.86446,9.0005699 12.185275,8.1628305 H 10.583335 8.9813967 L 8.3022117,9.0005699 7.6230266,9.8383092 6.9882804,9.8389289 6.3535343,9.8395474 Z M 8.9813898,5.5115369 V 4.813612 H 8.2787847 7.5761798 l -0.00244,0.6885566 c -0.00129,0.3787088 -4.628e-4,0.6938551 0.00211,0.700328 0.00363,0.00936 0.1495647,0.01134 0.7050279,0.00936 l 0.7005336,-0.00244 z m 4.6090872,0 V 4.813612 L 12.890215,4.811172 12.18995,4.808732 v 0.7027311 0.702731 l 0.700265,-0.00244 0.700262,-0.00244 z"
       id="path30"
       inkscape:connector-curvature="0"
       inkscape:export-filename="C:\Users\Andres\Desktop\text4540.png"
       inkscape:export-xdpi="357.51724"
       inkscape:export-ydpi="357.51724" />
  </g>
</svg>
