<?xml version="1.0" encoding="UTF-8" standalone="no"?>
<!-- Created with Inkscape (http://www.inkscape.org/) -->

<svg
   xmlns:dc="http://purl.org/dc/elements/1.1/"
   xmlns:cc="http://creativecommons.org/ns#"
   xmlns:rdf="http://www.w3.org/1999/02/22-rdf-syntax-ns#"
   xmlns:svg="http://www.w3.org/2000/svg"
   xmlns="http://www.w3.org/2000/svg"
   xmlns:sodipodi="http://sodipodi.sourceforge.net/DTD/sodipodi-0.dtd"
   xmlns:inkscape="http://www.inkscape.org/namespaces/inkscape"
   width="96"
   height="96"
   id="svg3173"
   version="1.1"
   inkscape:version="0.48.4 r9939"
   sodipodi:docname="start_select_rounded.svg"
   inkscape:export-filename="start_rounded.png"
   inkscape:export-xdpi="90"
   inkscape:export-ydpi="90">
  <defs
     id="defs3175">
    <filter
       color-interpolation-filters="sRGB"
       id="filter3086"
       inkscape:label="Drop Shadow">
      <feFlood
         id="feFlood3088"
         flood-opacity="0.7"
         flood-color="rgb(0,0,0)"
         result="flood" />
      <feComposite
         id="feComposite3090"
         in2="SourceGraphic"
         in="flood"
         operator="in"
         result="composite1" />
      <feGaussianBlur
         id="feGaussianBlur3092"
         stdDeviation="1"
         result="blur" />
      <feOffset
         id="feOffset3094"
         dx="0"
         dy="-2.41474e-15"
         result="offset" />
      <feComposite
         id="feComposite3096"
         in2="offset"
         in="SourceGraphic"
         operator="over"
         result="composite2" />
    </filter>
    <filter
       color-interpolation-filters="sRGB"
       id="filter3086-1"
       inkscape:label="Drop Shadow">
      <feFlood
         id="feFlood3088-6"
         flood-opacity="0.7"
         flood-color="rgb(0,0,0)"
         result="flood" />
      <feComposite
         id="feComposite3090-2"
         in2="SourceGraphic"
         in="flood"
         operator="in"
         result="composite1" />
      <feGaussianBlur
         id="feGaussianBlur3092-5"
         stdDeviation="1"
         result="blur" />
      <feOffset
         id="feOffset3094-0"
         dx="0"
         dy="-2.41474e-15"
         result="offset" />
      <feComposite
         id="feComposite3096-5"
         in2="offset"
         in="SourceGraphic"
         operator="over"
         result="composite2" />
    </filter>
    <filter
       color-interpolation-filters="sRGB"
       id="filter4422"
       inkscape:label="Drop Shadow">
      <feFlood
         id="feFlood4424"
         flood-opacity="0.7"
         flood-color="rgb(0,0,0)"
         result="flood" />
      <feComposite
         id="feComposite4426"
         in2="SourceGraphic"
         in="flood"
         operator="in"
         result="composite1" />
      <feGaussianBlur
         id="feGaussianBlur4428"
         stdDeviation="0.7"
         result="blur" />
      <feOffset
         id="feOffset4430"
         dx="0"
         dy="-2.41474e-15"
         result="offset" />
      <feComposite
         id="feComposite4432"
         in2="offset"
         in="SourceGraphic"
         operator="over"
         result="composite2" />
    </filter>
    <filter
       id="filter4241"
       style="color-interpolation-filters:sRGB;"
       inkscape:label="Drop Shadow">
      <feFlood
         id="feFlood4243"
         flood-opacity="0.7"
         flood-color="rgb(0,0,0)"
         result="flood" />
      <feComposite
         in2="SourceGraphic"
         id="feComposite4245"
         in="flood"
         operator="in"
         result="composite1" />
      <feGaussianBlur
         id="feGaussianBlur4247"
         in="composite"
         stdDeviation="0.6"
         result="blur" />
      <feOffset
         id="feOffset4249"
         dx="0"
         dy="-2.41474e-15"
         result="offset" />
      <feComposite
         in2="offset"
         id="feComposite4251"
         in="SourceGraphic"
         operator="over"
         result="composite2" />
    </filter>
    <filter
       color-interpolation-filters="sRGB"
       id="filter4438"
       inkscape:label="Drop Shadow">
      <feFlood
         id="feFlood4440"
         flood-opacity="0.7"
         flood-color="rgb(0,0,0)"
         result="flood" />
      <feComposite
         id="feComposite4442"
         in2="SourceGraphic"
         in="flood"
         operator="in"
         result="composite1" />
      <feGaussianBlur
         id="feGaussianBlur4444"
         stdDeviation="0.7"
         result="blur" />
      <feOffset
         id="feOffset4446"
         dx="0"
         dy="-2.41474e-15"
         result="offset" />
      <feComposite
         id="feComposite4448"
         in2="offset"
         in="SourceGraphic"
         operator="over"
         result="composite2" />
    </filter>
    <filter
       color-interpolation-filters="sRGB"
       id="filter3027"
       inkscape:label="Drop Shadow">
      <feFlood
         id="feFlood3029"
         flood-opacity="0.7"
         flood-color="rgb(0,0,0)"
         result="flood" />
      <feComposite
         id="feComposite3031"
         in2="SourceGraphic"
         in="flood"
         operator="in"
         result="composite1" />
      <feGaussianBlur
         id="feGaussianBlur3033"
         stdDeviation="0.7"
         result="blur" />
      <feOffset
         id="feOffset3035"
         dx="0"
         dy="-2.41474e-15"
         result="offset" />
      <feComposite
         id="feComposite3037"
         in2="offset"
         in="SourceGraphic"
         operator="over"
         result="composite2" />
    </filter>
    <filter
       color-interpolation-filters="sRGB"
       id="filter4422-9"
       inkscape:label="Drop Shadow">
      <feFlood
         id="feFlood4424-9"
         flood-opacity="0.7"
         flood-color="rgb(0,0,0)"
         result="flood" />
      <feComposite
         id="feComposite4426-8"
         in2="SourceGraphic"
         in="flood"
         operator="in"
         result="composite1" />
      <feGaussianBlur
         id="feGaussianBlur4428-3"
         stdDeviation="0.7"
         result="blur" />
      <feOffset
         id="feOffset4430-4"
         dx="0"
         dy="-2.41474e-15"
         result="offset" />
      <feComposite
         id="feComposite4432-8"
         in2="offset"
         in="SourceGraphic"
         operator="over"
         result="composite2" />
    </filter>
  </defs>
  <sodipodi:namedview
     id="base"
     pagecolor="#ffffff"
     bordercolor="#666666"
     borderopacity="1.0"
     inkscape:pageopacity="0.0"
     inkscape:pageshadow="2"
     inkscape:zoom="5.6"
     inkscape:cx="31.25235"
     inkscape:cy="46.373438"
     inkscape:document-units="px"
     inkscape:current-layer="layer1"
     showgrid="true"
     inkscape:window-width="1600"
     inkscape:window-height="851"
     inkscape:window-x="0"
     inkscape:window-y="25"
     inkscape:window-maximized="1">
    <inkscape:grid
       type="xygrid"
       id="grid3199"
       empspacing="5"
       visible="true"
       enabled="true"
       snapvisiblegridlinesonly="true" />
  </sodipodi:namedview>
  <metadata
     id="metadata3178">
    <rdf:RDF>
      <cc:Work
         rdf:about="">
        <dc:format>image/svg+xml</dc:format>
        <dc:type
           rdf:resource="http://purl.org/dc/dcmitype/StillImage" />
        <dc:title></dc:title>
      </cc:Work>
    </rdf:RDF>
  </metadata>
  <g
     inkscape:label="Layer 1"
     inkscape:groupmode="layer"
     id="layer1"
     transform="translate(0,-956.36218)">
    <g
       transform="matrix(1.5352108,0,0,1.5352108,-47.156421,956.46638)"
       id="g3918-1-7"
       inkscape:export-xdpi="149.1125"
       inkscape:export-ydpi="149.1125"
       inkscape:export-filename="/home/sergio/Projects/libretro/overlays/common-overlays/gamepads/flat2/Z.png"
       style="filter:url(#filter4241)">
      <path
         style="fill:none;stroke:#ffffff;stroke-width:1.30275268999999994;stroke-miterlimit:4;stroke-opacity:1;stroke-dasharray:none;"
         d="m 87.386327,31.198191 c 0,14.030065 -11.373616,25.403678 -25.403681,25.403678 -14.030067,0 -25.403682,-11.373613 -25.403682,-25.403678 0,-14.030063 11.373615,-25.4036787 25.403682,-25.4036787 14.030065,0 25.403681,11.3736157 25.403681,25.4036787 z"
         id="path4099-7-3"
         inkscape:connector-curvature="0" />
    </g>
    <g
       transform="matrix(0.96916477,0,0,1.0318163,106.99986,-25.00002)"
       style="font-size:40.58442688px;font-style:normal;font-weight:normal;line-height:125%;letter-spacing:0px;word-spacing:0px;fill:#ffffff;fill-opacity:1;stroke:none;filter:url(#filter4422);font-family:Sans"
       id="text4401">
      <path
         d="m 18.958675,1001.3406 c -10e-6,0.6474 -0.112304,1.232 -0.336883,1.7538 -0.217992,0.5152 -0.541663,0.9578 -0.971014,1.3277 -0.422763,0.3633 -0.9446,0.6441 -1.565513,0.8422 -0.614321,0.1982 -1.321113,0.2973 -2.120377,0.2973 -0.700192,0 -1.377259,-0.073 -2.031203,-0.218 -0.647345,-0.1453 -1.248449,-0.3633 -1.803312,-0.654 l 0,-2.8536 c 0.317064,0.152 0.637433,0.3006 0.961105,0.4459 0.32367,0.1387 0.650643,0.2642 0.980923,0.3765 0.336879,0.1123 0.670458,0.2015 1.000739,0.2676 0.336878,0.066 0.670458,0.099 1.000739,0.099 0.336877,0 0.624218,-0.036 0.862023,-0.1089 0.244399,-0.079 0.439262,-0.185 0.58459,-0.3171 0.151921,-0.1387 0.260912,-0.3006 0.326974,-0.4855 0.07265,-0.1916 0.108985,-0.3997 0.108991,-0.6242 -6e-6,-0.2709 -0.05946,-0.5087 -0.178349,-0.7134 -0.112301,-0.2114 -0.274136,-0.4063 -0.485507,-0.5846 -0.204778,-0.185 -0.455788,-0.36333 -0.753032,-0.53508 -0.290648,-0.17174 -0.617622,-0.35339 -0.980922,-0.54496 -0.303859,-0.15853 -0.644044,-0.35009 -1.020556,-0.57468 -0.376518,-0.22458 -0.733217,-0.50201 -1.070097,-0.8323 -0.330279,-0.33687 -0.607711,-0.73981 -0.832298,-1.20881 -0.224589,-0.47559 -0.336883,-1.04367 -0.336882,-1.70423 -10e-7,-0.64733 0.105687,-1.22532 0.317066,-1.73395 0.217981,-0.51522 0.525138,-0.94789 0.921472,-1.29799 0.39633,-0.35669 0.875231,-0.62751 1.436705,-0.81248 0.568072,-0.18494 1.202203,-0.27742 1.902395,-0.27744 0.350087,2e-5 0.690272,0.0231 1.020556,0.0694 0.336875,0.0463 0.667152,0.11231 0.99083,0.19817 0.330269,0.0859 0.660546,0.19157 0.990831,0.31706 0.330268,0.12552 0.670453,0.27084 1.020556,0.43597 l -0.990831,2.3879 c -0.297258,-0.1387 -0.57469,-0.26091 -0.832298,-0.36661 -0.257623,-0.10567 -0.508634,-0.19485 -0.753031,-0.26752 -0.244412,-0.0726 -0.485514,-0.12549 -0.723307,-0.15853 -0.2312,-0.0396 -0.465696,-0.0594 -0.70349,-0.0594 -0.515237,10e-6 -0.911569,0.13873 -1.188996,0.41615 -0.270832,0.27083 -0.406245,0.63414 -0.406241,1.08991 -4e-6,0.24441 0.03963,0.4624 0.1189,0.65395 0.08587,0.18496 0.217978,0.36001 0.396332,0.52514 0.18495,0.16515 0.419447,0.33359 0.70349,0.50532 0.290638,0.17175 0.640731,0.36662 1.05028,0.58459 0.495409,0.26423 0.951191,0.53506 1.367347,0.81248 0.416141,0.27084 0.772839,0.57469 1.070097,0.91157 0.303846,0.33028 0.538342,0.7068 0.70349,1.12954 0.165129,0.42273 0.247698,0.91823 0.247708,1.48623"
         style="font-size:20.29221344px;font-variant:normal;font-weight:bold;font-stretch:normal;fill:#ffffff;font-family:Droid Sans;-inkscape-font-specification:Droid Sans Bold"
         id="path4410"
         inkscape:connector-curvature="0" />
      <path
         d="m 29.057539,1005.3634 -8.342795,0 0,-14.48594 8.342795,0 0,2.51671 -5.271219,0 0,3.18056 4.904612,0 0,2.51671 -4.904612,0 0,3.73546 5.271219,0 0,2.5365"
         style="font-size:20.29221344px;font-variant:normal;font-weight:bold;font-stretch:normal;fill:#ffffff;font-family:Droid Sans;-inkscape-font-specification:Droid Sans Bold"
         id="path4412"
         inkscape:connector-curvature="0" />
      <path
         d="m 30.954489,1005.3634 0,-14.48594 3.071575,0 0,11.94944 5.27122,0 0,2.5365 -8.342795,0"
         style="font-size:20.29221344px;font-variant:normal;font-weight:bold;font-stretch:normal;fill:#ffffff;font-family:Droid Sans;-inkscape-font-specification:Droid Sans Bold"
         id="path4414"
         inkscape:connector-curvature="0" />
      <path
         d="m 49.641242,1005.3634 -8.342795,0 0,-14.48594 8.342795,0 0,2.51671 -5.27122,0 0,3.18056 4.904612,0 0,2.51671 -4.904612,0 0,3.73546 5.27122,0 0,2.5365"
         style="font-size:20.29221344px;font-variant:normal;font-weight:bold;font-stretch:normal;fill:#ffffff;font-family:Droid Sans;-inkscape-font-specification:Droid Sans Bold"
         id="path4416"
         inkscape:connector-curvature="0" />
      <path
         d="m 58.413709,993.22573 c -0.587901,10e-6 -1.109738,0.11561 -1.565513,0.34679 -0.449183,0.2246 -0.829001,0.55157 -1.139455,0.98092 -0.30386,0.42276 -0.535054,0.9413 -0.693582,1.5556 -0.158537,0.60772 -0.237804,1.29139 -0.237799,2.05102 -5e-6,0.77286 0.06935,1.45983 0.208074,2.06094 0.145317,0.6011 0.3633,1.1097 0.653949,1.5259 0.297243,0.4095 0.673759,0.7233 1.129547,0.9413 0.46238,0.2113 1.01064,0.317 1.644779,0.317 0.587884,0 1.175776,-0.066 1.763678,-0.1981 0.594488,-0.1321 1.238528,-0.3204 1.93212,-0.5648 l 0,2.5761 c -0.317077,0.1322 -0.63084,0.2445 -0.941289,0.3369 -0.310471,0.092 -0.627536,0.1685 -0.951198,0.2279 -0.32368,0.059 -0.65726,0.1024 -1.000739,0.1288 -0.33689,0.033 -0.700195,0.05 -1.089913,0.05 -1.116343,0 -2.084053,-0.1784 -2.903134,-0.5351 -0.819091,-0.3567 -1.496158,-0.8587 -2.031203,-1.506 -0.535051,-0.6474 -0.931383,-1.4268 -1.188997,-2.3384 -0.257618,-0.9116 -0.386425,-1.92551 -0.386424,-3.04185 -1e-6,-1.09651 0.148623,-2.10055 0.445874,-3.01213 0.297247,-0.91816 0.733212,-1.70752 1.307896,-2.36808 0.574678,-0.66054 1.284773,-1.17247 2.130286,-1.53579 0.845503,-0.3699 1.816516,-0.55485 2.913043,-0.55487 0.719995,2e-5 1.439997,0.0925 2.160011,0.27744 0.726598,0.17836 1.420179,0.42607 2.080744,0.74312 l -0.990831,2.49689 c -0.541664,-0.2576 -1.086621,-0.48219 -1.63487,-0.67376 -0.548269,-0.19155 -1.08662,-0.28733 -1.615054,-0.28734"
         style="font-size:20.29221344px;font-variant:normal;font-weight:bold;font-stretch:normal;fill:#ffffff;font-family:Droid Sans;-inkscape-font-specification:Droid Sans Bold"
         id="path4418"
         inkscape:connector-curvature="0" />
      <path
         d="m 70.668563,1005.3634 -3.061667,0 0,-11.9296 -3.636349,0 0,-2.55634 10.324456,0 0,2.55634 -3.62644,0 0,11.9296"
         style="font-size:20.29221344px;font-variant:normal;font-weight:bold;font-stretch:normal;fill:#ffffff;font-family:Droid Sans;-inkscape-font-specification:Droid Sans Bold"
         id="path4420"
         inkscape:connector-curvature="0" />
    </g>
    <g
       id="g4613"
       transform="translate(94.1,0)">
      <path
         transform="matrix(0.97239356,0,0,1.0283902,-76.999705,-25.00002)"
         inkscape:connector-curvature="0"
         d="m 33.971397,1008.654 -0.988438,-3.4398 -4.981729,0 -0.998323,3.4398 -3.093812,0 4.695082,-14.51028 3.746181,0 4.714851,14.51028 -3.093812,0 m -1.700114,-6.0097 -0.929132,-3.16302 c -0.03955,-0.1186 -0.09885,-0.31299 -0.177919,-0.58317 -0.07908,-0.27017 -0.164746,-0.5667 -0.256994,-0.8896 -0.08567,-0.32947 -0.168041,-0.65895 -0.247109,-0.98844 -0.07908,-0.32947 -0.135093,-0.60952 -0.168035,-0.84017 -0.02637,0.14498 -0.06261,0.31631 -0.108728,0.51399 -0.03954,0.1977 -0.08897,0.40856 -0.148266,0.6326 -0.05272,0.21747 -0.108734,0.43822 -0.168034,0.66225 -0.05931,0.22406 -0.115324,0.43492 -0.168035,0.6326 -0.05272,0.1977 -0.102144,0.37232 -0.148266,0.52387 -0.03954,0.15157 -0.0692,0.2636 -0.08896,0.33607 l -0.919248,3.16302 3.528725,0"
         style="font-size:20.24321747px;font-style:normal;font-variant:normal;font-weight:bold;font-stretch:normal;line-height:125%;letter-spacing:0px;word-spacing:0px;fill:#ffffff;fill-opacity:1;stroke:none;filter:url(#filter4438);font-family:Droid Sans;-inkscape-font-specification:Droid Sans Bold"
         id="path4453" />
      <path
         inkscape:connector-curvature="0"
         id="path4410-7"
         style="font-size:20.29221344px;font-style:normal;font-variant:normal;font-weight:bold;font-stretch:normal;line-height:125%;letter-spacing:0px;word-spacing:0px;fill:#ffffff;fill-opacity:1;stroke:none;filter:url(#filter4422);font-family:Droid Sans;-inkscape-font-specification:Droid Sans Bold"
         d="m -66.970313,1008.2362 c -9e-6,0.668 -0.108841,1.2712 -0.326495,1.8096 -0.21127,0.5316 -0.524961,0.9883 -0.941072,1.37 -0.409727,0.3748 -0.915474,0.6646 -1.517241,0.869 -0.595378,0.2045 -1.280376,0.3067 -2.054994,0.3067 -0.678602,0 -1.334791,-0.075 -1.968571,-0.2249 -0.627384,-0.1499 -1.209952,-0.3749 -1.747706,-0.6748 l 0,-2.9444 c 0.307287,0.1568 0.617778,0.3102 0.931469,0.4601 0.31369,0.1431 0.63058,0.2726 0.950676,0.3885 0.326491,0.1158 0.649784,0.2079 0.969881,0.2761 0.32649,0.068 0.649784,0.1021 0.969881,0.1021 0.326489,0 0.60497,-0.037 0.835442,-0.1123 0.236863,-0.082 0.425718,-0.1909 0.566564,-0.3272 0.147237,-0.1431 0.252867,-0.3102 0.316892,-0.501 0.07041,-0.1977 0.105624,-0.4124 0.10563,-0.644 -6e-6,-0.2796 -0.05763,-0.5249 -0.172849,-0.7361 -0.108838,-0.2182 -0.265683,-0.4193 -0.470537,-0.6032 -0.198463,-0.1909 -0.441733,-0.3749 -0.729812,-0.5521 -0.281685,-0.1772 -0.598577,-0.3647 -0.950675,-0.5623 -0.294489,-0.1636 -0.624184,-0.3613 -0.989087,-0.593 -0.364908,-0.2317 -0.710608,-0.518 -1.0371,-0.8588 -0.320095,-0.3476 -0.588972,-0.7633 -0.806634,-1.2473 -0.217664,-0.4907 -0.326495,-1.0768 -0.326494,-1.7584 -10e-7,-0.6679 0.102428,-1.2644 0.307289,-1.78938 0.21126,-0.53161 0.508945,-0.97804 0.893058,-1.33928 0.38411,-0.36804 0.848243,-0.64748 1.392404,-0.83834 0.550556,-0.19083 1.165133,-0.28625 1.843735,-0.28626 0.339291,10e-6 0.668987,0.0238 0.989086,0.0716 0.326488,0.0478 0.646581,0.11587 0.960278,0.20447 0.320085,0.0886 0.640178,0.19767 0.960278,0.32714 0.320085,0.12951 0.64978,0.27946 0.989087,0.44984 l -0.960278,2.46411 c -0.288092,-0.1431 -0.556969,-0.2692 -0.806634,-0.3783 -0.249679,-0.109 -0.49295,-0.2011 -0.729811,-0.2761 -0.236876,-0.075 -0.470543,-0.12954 -0.701004,-0.16364 -0.224071,-0.041 -0.451336,-0.061 -0.681798,-0.061 -0.499349,0 -0.88346,0.14314 -1.152333,0.42944 -0.26248,0.2795 -0.393718,0.6544 -0.393714,1.1246 -4e-6,0.2522 0.03841,0.4772 0.115234,0.6748 0.08322,0.1908 0.211256,0.3715 0.384111,0.5418 0.179247,0.1704 0.406513,0.3442 0.681797,0.5214 0.281677,0.1773 0.620974,0.3783 1.017895,0.6032 0.480133,0.2727 0.921861,0.5521 1.325184,0.8384 0.40331,0.2794 0.749009,0.5929 1.037101,0.9405 0.294476,0.3408 0.521742,0.7293 0.681797,1.1655 0.160038,0.4362 0.240061,0.9475 0.24007,1.5335" />
      <path
         inkscape:connector-curvature="0"
         id="path4420-8"
         style="font-size:20.29221344px;font-style:normal;font-variant:normal;font-weight:bold;font-stretch:normal;line-height:125%;letter-spacing:0px;word-spacing:0px;fill:#ffffff;fill-opacity:1;stroke:none;filter:url(#filter4422);font-family:Droid Sans;-inkscape-font-specification:Droid Sans Bold"
         d="m -57.509909,1012.3455 -2.96726,0 0,-12.3092 -3.524221,0 0,-2.63762 10.006099,0 0,2.63762 -3.514618,0 0,12.3092" />
      <path
         id="path4462-1"
         style="font-size:20.53188133px;font-style:normal;font-variant:normal;font-weight:bold;font-stretch:normal;line-height:125%;letter-spacing:0px;word-spacing:0px;fill:#ffffff;fill-opacity:1;stroke:none;filter:url(#filter3027);font-family:Droid Sans;-inkscape-font-specification:Droid Sans Bold"
         d="m -35.987623,1003.9901 0.801929,0 c 0.821016,0 1.409734,-0.1733 1.766154,-0.5199 0.356406,-0.3533 0.534613,-0.8698 0.53462,-1.5493 -7e-6,-0.7067 -0.190943,-1.2095 -0.572807,-1.5085 -0.381878,-0.2991 -0.973778,-0.44855 -1.775701,-0.44855 l -0.754195,0 0,4.02625 m 0,2.5686 0,5.7183 -2.959503,0 0,-14.90223 3.818713,0 c 1.788423,10e-5 3.109059,0.37039 3.961914,1.11107 0.852835,0.73387 1.279257,1.85176 1.279268,3.35346 -1.1e-5,0.5097 -0.06366,0.9718 -0.190935,1.3863 -0.127302,0.4145 -0.299143,0.7848 -0.515526,1.111 -0.21004,0.3194 -0.455074,0.6015 -0.735103,0.8461 -0.273683,0.2378 -0.563269,0.4382 -0.868757,0.6013 0.706453,1.2096 1.339722,2.29 1.89981,3.2414 0.241841,0.4077 0.474145,0.8052 0.696914,1.1926 0.229112,0.3873 0.432776,0.7339 0.610994,1.0396 0.178196,0.3058 0.324579,0.5504 0.439153,0.734 l 0.162294,0.2854 -3.284092,0 -3.026329,-5.7183 -1.288815,0"
         inkscape:connector-curvature="0" />
      <path
         inkscape:connector-curvature="0"
         id="path4420-8-8"
         style="font-size:20.29221344px;font-style:normal;font-variant:normal;font-weight:bold;font-stretch:normal;line-height:125%;letter-spacing:0px;word-spacing:0px;fill:#ffffff;fill-opacity:1;stroke:none;filter:url(#filter4422-9);font-family:Droid Sans;-inkscape-font-specification:Droid Sans Bold"
         d="m -20.509909,1012.3455 -2.96726,0 0,-12.3092 -3.524221,0 0,-2.63762 10.006099,0 0,2.63762 -3.514618,0 0,12.3092" />
    </g>
  </g>
</svg>
