<?xml version="1.0" encoding="UTF-8" standalone="no"?>
<!-- Created with Inkscape (http://www.inkscape.org/) -->

<svg
   xmlns:dc="http://purl.org/dc/elements/1.1/"
   xmlns:cc="http://creativecommons.org/ns#"
   xmlns:rdf="http://www.w3.org/1999/02/22-rdf-syntax-ns#"
   xmlns:svg="http://www.w3.org/2000/svg"
   xmlns="http://www.w3.org/2000/svg"
   xmlns:sodipodi="http://sodipodi.sourceforge.net/DTD/sodipodi-0.dtd"
   xmlns:inkscape="http://www.inkscape.org/namespaces/inkscape"
   width="140"
   height="100"
   id="svg3111"
   version="1.1"
   inkscape:version="0.48.4 r9939"
   inkscape:export-filename="genesis_mode.png"
   inkscape:export-xdpi="90"
   inkscape:export-ydpi="90"
   sodipodi:docname="genesis_mode.svg">
  <defs
     id="defs3113">
    <filter
       color-interpolation-filters="sRGB"
       id="filter10741"
       inkscape:label="Drop Shadow">
      <feFlood
         id="feFlood10743"
         flood-opacity="0.7"
         flood-color="rgb(0,0,0)"
         result="flood" />
      <feComposite
         id="feComposite10745"
         in2="SourceGraphic"
         in="flood"
         operator="in"
         result="composite1" />
      <feGaussianBlur
         id="feGaussianBlur10747"
         stdDeviation="0.8"
         result="blur" />
      <feOffset
         id="feOffset10749"
         dx="0"
         dy="-2.41474e-15"
         result="offset" />
      <feComposite
         id="feComposite10751"
         in2="offset"
         in="SourceGraphic"
         operator="over"
         result="composite2" />
    </filter>
    <filter
       color-interpolation-filters="sRGB"
       id="filter3194"
       inkscape:label="Drop Shadow">
      <feFlood
         id="feFlood3196"
         flood-opacity="0.7"
         flood-color="rgb(0,0,0)"
         result="flood" />
      <feComposite
         id="feComposite3198"
         in2="SourceGraphic"
         in="flood"
         operator="in"
         result="composite1" />
      <feGaussianBlur
         id="feGaussianBlur3200"
         stdDeviation="0.7"
         result="blur" />
      <feOffset
         id="feOffset3202"
         dx="0"
         dy="-2.41474e-15"
         result="offset" />
      <feComposite
         id="feComposite3204"
         in2="offset"
         in="SourceGraphic"
         operator="over"
         result="composite2" />
    </filter>
  </defs>
  <sodipodi:namedview
     id="base"
     pagecolor="#ffffff"
     bordercolor="#666666"
     borderopacity="1.0"
     inkscape:pageopacity="0.0"
     inkscape:pageshadow="2"
     inkscape:zoom="3.959798"
     inkscape:cx="107.56053"
     inkscape:cy="10.658247"
     inkscape:document-units="px"
     inkscape:current-layer="layer1"
     showgrid="true"
     inkscape:window-width="1600"
     inkscape:window-height="851"
     inkscape:window-x="0"
     inkscape:window-y="25"
     inkscape:window-maximized="1">
    <inkscape:grid
       type="xygrid"
       id="grid3119"
       empspacing="5"
       visible="true"
       enabled="true"
       snapvisiblegridlinesonly="true" />
  </sodipodi:namedview>
  <metadata
     id="metadata3116">
    <rdf:RDF>
      <cc:Work
         rdf:about="">
        <dc:format>image/svg+xml</dc:format>
        <dc:type
           rdf:resource="http://purl.org/dc/dcmitype/StillImage" />
        <dc:title></dc:title>
      </cc:Work>
    </rdf:RDF>
  </metadata>
  <g
     inkscape:label="Layer 1"
     inkscape:groupmode="layer"
     id="layer1"
     transform="translate(0,-952.36218)">
    <g
       transform="matrix(1.7554078,0,0,1.7497098,-48.049439,870.17914)"
       id="g3922-0-1-6-4-5"
       style="color:#000000;fill:none;stroke:#ffffff;stroke-width:1.14119005;stroke-linecap:butt;stroke-linejoin:miter;stroke-miterlimit:4;stroke-opacity:1;stroke-dasharray:none;stroke-dashoffset:0;marker:none;visibility:visible;display:inline;overflow:visible;filter:url(#filter10741);enable-background:accumulate"
       inkscape:export-filename="L1.png"
       inkscape:export-xdpi="135"
       inkscape:export-ydpi="135">
      <path
         inkscape:export-ydpi="135"
         inkscape:export-xdpi="135"
         inkscape:export-filename="R.png"
         sodipodi:nodetypes="sccccccss"
         inkscape:connector-curvature="0"
         id="rect4891-9-83-5-7-0"
         d="m 31.359915,57.524203 c 0,-3.458408 3.002619,-6.55401 6.549415,-6.55401 l 58.701676,0 c 3.773374,0 6.526944,2.773434 6.526944,6.577796 l 0,36.051069 c 0,3.761563 -2.85274,6.522142 -6.526944,6.522142 l -58.701676,0 c -3.502602,0 -6.549415,-3.13859 -6.549415,-6.596997 z"
         style="color:#000000;fill:none;stroke:#ffffff;stroke-width:1.14119005;stroke-linecap:butt;stroke-linejoin:miter;stroke-miterlimit:4;stroke-opacity:1;stroke-dasharray:none;stroke-dashoffset:0;marker:none;visibility:visible;display:inline;overflow:visible;enable-background:accumulate" />
    </g>
    <g
       transform="matrix(1.2663865,0,0,1.3486451,77.426913,893.34802)"
       style="font-size:20px;font-style:normal;font-weight:normal;line-height:125%;letter-spacing:0px;word-spacing:0px;fill:#ffffff;fill-opacity:1;stroke:none;filter:url(#filter3194);font-family:Sans"
       id="flowRoot3127">
      <path
         d="m -36.964844,86.941485 -2.821289,-10.081055 -0.0791,0 c 0.03515,0.539072 0.06445,1.060556 0.08789,1.564453 0.01172,0.216806 0.0205,0.439462 0.02637,0.667969 0.01172,0.228523 0.0205,0.454109 0.02637,0.676758 0.01171,0.222663 0.01757,0.43653 0.01758,0.641601 0.0059,0.205085 0.0088,0.389655 0.0088,0.553711 l 0,5.976563 -2.43457,0 0,-12.849609 3.708984,0 2.777344,9.826171 0.05273,0 2.953125,-9.826171 3.708984,0 0,12.849609 -2.540039,0 0,-6.082031 c -1.2e-5,-0.152338 -1.2e-5,-0.325189 0,-0.518555 0.0058,-0.193353 0.01171,-0.398431 0.01758,-0.615234 0.0058,-0.21679 0.01171,-0.436516 0.01758,-0.65918 0.01171,-0.222648 0.0205,-0.439445 0.02637,-0.650391 0.02342,-0.492178 0.04393,-1.004873 0.06152,-1.538086 l -0.07031,0 -3.041016,10.063477 -2.504883,0"
         style="font-size:18px;font-variant:normal;font-weight:bold;font-stretch:normal;fill:#ffffff;font-family:Droid Sans;-inkscape-font-specification:Droid Sans Bold"
         id="path3186"
         inkscape:connector-curvature="0" />
      <path
         d="m -14.728516,80.499102 c -1.2e-5,0.99024 -0.1172,1.892583 -0.351562,2.707031 -0.228528,0.814456 -0.58009,1.511721 -1.054688,2.091797 -0.47462,0.580079 -1.075205,1.028321 -1.801757,1.344727 -0.720712,0.316406 -1.57325,0.474609 -2.557618,0.474609 -0.98438,0 -1.839848,-0.158203 -2.566406,-0.474609 -0.720707,-0.316406 -1.318362,-0.764648 -1.792969,-1.344727 -0.468752,-0.580076 -0.820314,-1.277341 -1.054687,-2.091797 -0.228517,-0.820308 -0.342775,-1.72851 -0.342774,-2.724609 -1e-6,-0.996086 0.114257,-1.898429 0.342774,-2.707031 0.234373,-0.814443 0.588865,-1.508779 1.063476,-2.083008 0.474607,-0.574207 1.072263,-1.016589 1.792969,-1.327149 0.726558,-0.316393 1.584955,-0.474596 2.575196,-0.474609 0.984367,1.3e-5 1.836905,0.158216 2.557617,0.474609 0.720693,0.31056 1.315419,0.755872 1.784179,1.335938 0.474598,0.574229 0.82616,1.268565 1.054688,2.083008 0.234362,0.808602 0.35155,1.713874 0.351562,2.71582 m -8.71875,0 c -3e-6,0.673834 0.05859,1.280279 0.175782,1.819336 0.117183,0.533207 0.295894,0.987308 0.536132,1.362305 0.246089,0.369143 0.553706,0.653323 0.922852,0.852539 0.369135,0.199221 0.808587,0.29883 1.318359,0.298828 0.521477,2e-6 0.966789,-0.09961 1.335938,-0.298828 0.374991,-0.199216 0.679679,-0.483396 0.914062,-0.852539 0.240225,-0.374997 0.416007,-0.829098 0.527344,-1.362305 0.117178,-0.539057 0.175772,-1.145502 0.175781,-1.819336 -9e-6,-0.673821 -0.0586,-1.277336 -0.175781,-1.810547 -0.111337,-0.539053 -0.287119,-0.996084 -0.527344,-1.371094 -0.234383,-0.37499 -0.536141,-0.662099 -0.905273,-0.861328 -0.369148,-0.199208 -0.811531,-0.298817 -1.327148,-0.298828 -0.509772,1.1e-5 -0.952155,0.09962 -1.327149,0.298828 -0.375005,0.199229 -0.685552,0.486338 -0.931641,0.861328 -0.240238,0.37501 -0.418949,0.832041 -0.536132,1.371094 -0.117192,0.533211 -0.175785,1.136726 -0.175782,1.810547"
         style="font-size:18px;font-variant:normal;font-weight:bold;font-stretch:normal;fill:#ffffff;font-family:Droid Sans;-inkscape-font-specification:Droid Sans Bold"
         id="path3188"
         inkscape:connector-curvature="0" />
      <path
         d="m -2.1337891,80.393633 c -1.15e-5,1.08399 -0.1494254,2.036138 -0.4482422,2.856446 -0.2929795,0.814456 -0.7207135,1.497072 -1.2832031,2.047851 -0.5566499,0.544923 -1.2421961,0.955079 -2.0566406,1.230469 -0.8086007,0.275391 -1.7314514,0.413086 -2.7685547,0.413086 l -3.3837893,0 0,-12.849609 3.761719,0 c 0.9433531,1.2e-5 1.7929616,0.134778 2.5488281,0.404296 0.7617101,0.269544 1.4121001,0.670911 1.9511719,1.204102 0.5390521,0.527354 0.9521376,1.183604 1.2392578,1.96875 0.2929574,0.785165 0.4394416,1.693367 0.4394531,2.724609 m -2.7597656,0.07031 c -8.8e-6,-0.714837 -0.073251,-1.33007 -0.2197265,-1.845703 -0.1406335,-0.521476 -0.3486411,-0.952139 -0.6240235,-1.291992 -0.2695389,-0.339834 -0.603523,-0.591787 -1.0019531,-0.75586 -0.3925847,-0.164052 -0.8437561,-0.246083 -1.3535156,-0.246094 l -1.256836,0 0,8.367188 1.0019531,0 c 1.1484311,2e-6 2.0097583,-0.35156 2.5839844,-1.054688 0.5800696,-0.703121 0.8701084,-1.760737 0.8701172,-3.172851"
         style="font-size:18px;font-variant:normal;font-weight:bold;font-stretch:normal;fill:#ffffff;font-family:Droid Sans;-inkscape-font-specification:Droid Sans Bold"
         id="path3190"
         inkscape:connector-curvature="0" />
      <path
         d="m 7.9472656,86.941485 -7.4003906,0 0,-12.849609 7.4003906,0 0,2.232421 -4.6757812,0 0,2.821289 4.3505859,0 0,2.232422 -4.3505859,0 0,3.313477 4.6757812,0 0,2.25"
         style="font-size:18px;font-variant:normal;font-weight:bold;font-stretch:normal;fill:#ffffff;font-family:Droid Sans;-inkscape-font-specification:Droid Sans Bold"
         id="path3192"
         inkscape:connector-curvature="0" />
    </g>
    <flowRoot
       xml:space="preserve"
       id="flowRoot3127-3"
       style="font-size:20px;font-style:normal;font-weight:normal;line-height:125%;letter-spacing:0px;word-spacing:0px;fill:#000000;fill-opacity:1;stroke:none;font-family:Sans"
       transform="matrix(0.99384254,0,0,1.0583979,-71.519389,925.34349)"><flowRegion
         id="flowRegion3129"><rect
           id="rect3131"
           width="53.75"
           height="24"
           x="-43.75"
           y="69"
           style="font-size:20px" /></flowRegion><flowPara
         id="flowPara3133"
         style="font-size:18px;font-style:normal;font-variant:normal;font-weight:bold;font-stretch:normal;font-family:Droid Sans;-inkscape-font-specification:Droid Sans Bold">MODE</flowPara></flowRoot>  </g>
</svg>
