<?xml version="1.0" encoding="UTF-8" standalone="no"?>
<!-- Created with Inkscape (http://www.inkscape.org/) -->

<svg
   xmlns:dc="http://purl.org/dc/elements/1.1/"
   xmlns:cc="http://creativecommons.org/ns#"
   xmlns:rdf="http://www.w3.org/1999/02/22-rdf-syntax-ns#"
   xmlns:svg="http://www.w3.org/2000/svg"
   xmlns="http://www.w3.org/2000/svg"
   xmlns:sodipodi="http://sodipodi.sourceforge.net/DTD/sodipodi-0.dtd"
   xmlns:inkscape="http://www.inkscape.org/namespaces/inkscape"
   width="100"
   height="46"
   id="svg3347"
   version="1.1"
   inkscape:version="0.48.4 r9939"
   sodipodi:docname="pokemini_shake.svg"
   inkscape:export-filename="pokemini_shake.png"
   inkscape:export-xdpi="90"
   inkscape:export-ydpi="90">
  <defs
     id="defs3349">
    <filter
       id="filter3411"
       inkscape:label="Drop Shadow"
       color-interpolation-filters="sRGB">
      <feFlood
         id="feFlood3413"
         flood-opacity="0.7"
         flood-color="rgb(0,0,0)"
         result="flood" />
      <feComposite
         in2="SourceGraphic"
         id="feComposite3415"
         in="flood"
         operator="in"
         result="composite1" />
      <feGaussianBlur
         id="feGaussianBlur3417"
         stdDeviation="1.3"
         result="blur" />
      <feOffset
         id="feOffset3419"
         dx="0"
         dy="-2.41474e-15"
         result="offset" />
      <feComposite
         in2="offset"
         id="feComposite3421"
         in="SourceGraphic"
         operator="over"
         result="composite2" />
    </filter>
    <filter
       id="filter3519"
       inkscape:label="Drop Shadow"
       color-interpolation-filters="sRGB">
      <feFlood
         id="feFlood3521"
         flood-opacity="0.8"
         flood-color="rgb(0,0,0)"
         result="flood" />
      <feComposite
         id="feComposite3523"
         in2="SourceGraphic"
         in="flood"
         operator="in"
         result="composite1" />
      <feGaussianBlur
         id="feGaussianBlur3525"
         stdDeviation="0.5"
         result="blur" />
      <feOffset
         id="feOffset3527"
         dx="0"
         dy="-2.41474e-15"
         result="offset" />
      <feComposite
         id="feComposite3529"
         in2="offset"
         in="SourceGraphic"
         operator="over"
         result="composite2" />
    </filter>
    <filter
       id="filter3519-3"
       inkscape:label="Drop Shadow"
       color-interpolation-filters="sRGB">
      <feFlood
         id="feFlood3521-6"
         flood-opacity="0.8"
         flood-color="rgb(0,0,0)"
         result="flood" />
      <feComposite
         id="feComposite3523-7"
         in2="SourceGraphic"
         in="flood"
         operator="in"
         result="composite1" />
      <feGaussianBlur
         id="feGaussianBlur3525-5"
         stdDeviation="0.5"
         result="blur" />
      <feOffset
         id="feOffset3527-3"
         dx="0"
         dy="-2.41474e-15"
         result="offset" />
      <feComposite
         id="feComposite3529-5"
         in2="offset"
         in="SourceGraphic"
         operator="over"
         result="composite2" />
    </filter>
    <filter
       id="filter3140"
       style="color-interpolation-filters:sRGB;"
       inkscape:label="Drop Shadow">
      <feFlood
         id="feFlood3142"
         flood-opacity="0.8"
         flood-color="rgb(0,0,0)"
         result="flood" />
      <feComposite
         in2="SourceGraphic"
         id="feComposite3144"
         in="flood"
         operator="in"
         result="composite1" />
      <feGaussianBlur
         id="feGaussianBlur3146"
         in="composite"
         stdDeviation="0.9"
         result="blur" />
      <feOffset
         id="feOffset3148"
         dx="0"
         dy="-2.41474e-15"
         result="offset" />
      <feComposite
         in2="offset"
         id="feComposite3150"
         in="SourceGraphic"
         operator="over"
         result="composite2" />
    </filter>
  </defs>
  <sodipodi:namedview
     id="base"
     pagecolor="#ffffff"
     bordercolor="#666666"
     borderopacity="1.0"
     inkscape:pageopacity="0.0"
     inkscape:pageshadow="2"
     inkscape:zoom="2"
     inkscape:cx="170.8259"
     inkscape:cy="23.433812"
     inkscape:document-units="px"
     inkscape:current-layer="layer1"
     showgrid="true"
     inkscape:window-width="1600"
     inkscape:window-height="847"
     inkscape:window-x="0"
     inkscape:window-y="29"
     inkscape:window-maximized="1">
    <inkscape:grid
       empspacing="5"
       visible="true"
       enabled="true"
       snapvisiblegridlinesonly="true"
       type="xygrid"
       id="grid3355" />
  </sodipodi:namedview>
  <metadata
     id="metadata3352">
    <rdf:RDF>
      <cc:Work
         rdf:about="">
        <dc:format>image/svg+xml</dc:format>
        <dc:type
           rdf:resource="http://purl.org/dc/dcmitype/StillImage" />
        <dc:title></dc:title>
      </cc:Work>
    </rdf:RDF>
  </metadata>
  <g
     inkscape:label="Layer 1"
     inkscape:groupmode="layer"
     id="layer1"
     transform="translate(0,-1006.3622)">
    <g
       transform="matrix(2.7793907,0,0,1.7352471,-75.244097,909.91629)"
       id="g3922-0-1-6-4-5-0-3-7-5-1"
       style="color:#000000;fill:none;stroke:#ffffff;stroke-width:0.91069835;stroke-linecap:butt;stroke-linejoin:miter;stroke-miterlimit:4;stroke-opacity:1;stroke-dasharray:none;stroke-dashoffset:0;marker:none;visibility:visible;display:inline;overflow:visible;filter:url(#filter3519);enable-background:accumulate"
       inkscape:export-filename="L1_smaller.png"
       inkscape:export-xdpi="135"
       inkscape:export-ydpi="135">
      <path
         inkscape:export-ydpi="135"
         inkscape:export-xdpi="135"
         inkscape:export-filename="R.png"
         sodipodi:nodetypes="sccccccss"
         inkscape:connector-curvature="0"
         id="rect4891-9-83-5-7-0-1-1-4-7-4"
         d="m 28.51132,64.439633 c 0,-3.458408 0.410906,-6.55401 3.957702,-6.55401 l 25.185376,0 c 3.773379,0 3.957703,2.773434 3.957703,6.577796 l 0,8.798972 c 0,3.761563 -0.283499,6.522148 -3.957703,6.522148 l -25.185376,0 c -3.502602,0 -3.957702,-3.138596 -3.957702,-6.597003 z"
         style="color:#000000;fill:none;stroke:#ffffff;stroke-width:0.91069835;stroke-linecap:butt;stroke-linejoin:miter;stroke-miterlimit:4;stroke-opacity:1;stroke-dasharray:none;stroke-dashoffset:0;marker:none;visibility:visible;display:inline;overflow:visible;enable-background:accumulate" />
    </g>
    <g
       style="font-size:41.62318802px;font-style:normal;font-variant:normal;font-weight:normal;font-stretch:normal;line-height:125%;letter-spacing:0px;word-spacing:0px;fill:#ffffff;fill-opacity:1;stroke:none;filter:url(#filter3411);font-family:Droid Sans;-inkscape-font-specification:Droid Sans"
       id="text3097"
       transform="translate(0,-99.99986)">
      <path
         d="m 33.086406,1002.4241 c -2e-5,1.3143 -0.237131,2.4931 -0.711334,3.5364 -0.460692,1.0297 -1.124603,1.9036 -1.991735,2.6217 -0.867165,0.7181 -1.924003,1.2669 -3.170516,1.6463 -1.24654,0.3658 -2.648883,0.5487 -4.207031,0.5487 -1.503971,0 -2.913088,-0.1219 -4.227355,-0.3658 -1.300729,-0.2304 -2.39144,-0.5759 -3.272135,-1.0365 l 0,-3.6177 c 0.46067,0.2168 0.982314,0.4336 1.564934,0.6504 0.596161,0.2032 1.219424,0.3861 1.869791,0.5487 0.650357,0.1626 1.321042,0.2981 2.012059,0.4065 0.691002,0.095 1.375236,0.1423 2.052706,0.1423 2.167863,0 3.766668,-0.4065 4.796422,-1.2195 1.043274,-0.8129 1.564918,-1.9781 1.564934,-3.4957 -1.6e-5,-0.7316 -0.101635,-1.3684 -0.304857,-1.9104 -0.189705,-0.542 -0.535209,-1.0365 -1.036515,-1.48364 -0.487786,-0.46066 -1.144922,-0.90101 -1.971411,-1.32104 -0.826514,-0.43357 -1.869802,-0.90101 -3.129868,-1.40235 -1.205889,-0.47421 -2.255952,-0.98908 -3.150193,-1.54461 -0.880704,-0.56905 -1.612361,-1.20586 -2.194973,-1.91044 -0.56907,-0.70454 -0.99587,-1.50394 -1.2804,-2.39821 -0.270987,-0.89423 -0.406479,-1.91042 -0.406477,-3.04857 -2e-6,-1.19231 0.216785,-2.25592 0.650362,-3.19084 0.433572,-0.93487 1.043286,-1.72073 1.829144,-2.35757 0.785849,-0.65033 1.720744,-1.14488 2.804688,-1.48364 1.097477,-0.3387 2.303356,-0.50806 3.61764,-0.50809 1.612344,3e-5 3.062108,0.15585 4.349298,0.46745 1.287159,0.29811 2.432066,0.68426 3.434726,1.15845 l -1.361696,3.17052 c -0.880716,-0.3929 -1.883357,-0.73163 -3.007926,-1.01619 -1.111049,-0.29806 -2.262731,-0.4471 -3.455049,-0.44712 -1.653014,2e-5 -2.933414,0.38618 -3.841203,1.15845 -0.907804,0.75878 -1.361702,1.78852 -1.361696,3.08922 -6e-6,0.77233 0.101613,1.44302 0.304857,2.01206 0.203232,0.55554 0.541962,1.06364 1.016192,1.52429 0.474214,0.44714 1.097477,0.87394 1.869791,1.2804 0.785845,0.39295 1.747838,0.81297 2.885983,1.26008 1.232965,0.48779 2.310127,0.98911 3.231488,1.50396 0.934879,0.51489 1.713958,1.0975 2.337239,1.74785 0.623246,0.65037 1.090693,1.40235 1.402344,2.25594 0.325162,0.85364 0.487752,1.86304 0.487772,3.02824"
         style="fill:#ffffff;-inkscape-font-specification:Droid Sans"
         id="path3144"
         inkscape:connector-curvature="0" />
      <path
         d="m 59,1010.3707 -3.763006,0 0,-13.86082 -13.473988,0 0,13.86082 -3.763006,0 0,-29.7134 3.763006,0 0,12.51947 13.473988,0 0,-12.51947 3.763006,0 0,29.7134"
         style="fill:#ffffff;-inkscape-font-specification:Droid Sans"
         id="path3146"
         inkscape:connector-curvature="0" />
      <path
         d="m 84.184739,1010.3707 -3.212853,-9.2067 -10.943772,0 -3.253012,9.2067 -3.775102,0 10.783132,-29.83534 3.413656,0 L 88,1010.3707 l -3.815261,0 m -4.397592,-12.56009 -2.971886,-8.61731 c -0.08034,-0.24386 -0.180736,-0.54194 -0.301204,-0.89424 -0.10711,-0.35226 -0.220899,-0.73164 -0.341368,-1.13814 -0.120494,-0.40645 -0.240975,-0.82648 -0.361443,-1.26007 -0.120496,-0.4471 -0.234284,-0.88068 -0.341368,-1.30073 -0.0937,0.42005 -0.200813,0.85363 -0.321282,1.30073 -0.120495,0.44714 -0.240975,0.88072 -0.361449,1.30072 -0.120493,0.4065 -0.240975,0.78588 -0.361444,1.13813 -0.107105,0.33876 -0.200816,0.62329 -0.281124,0.8536 l -2.911648,8.61731 8.554216,0"
         style="fill:#ffffff;-inkscape-font-specification:Droid Sans"
         id="path3148"
         inkscape:connector-curvature="0" />
      <path
         d="m 112.05961,1010.3707 -4.28833,0 -9.166035,-14.186 -2.825014,2.31692 0,11.86908 -3.780231,0 0,-29.7134 3.780231,0 0,14.85671 2.459182,-3.4144 9.186377,-11.44231 4.24767,0 -10.56838,12.94627 10.95453,16.76713"
         style="fill:#ffffff;-inkscape-font-specification:Droid Sans"
         id="path3150"
         inkscape:connector-curvature="0" />
      <path
         d="m 131.42578,1010.3707 -15.42578,0 0,-29.7134 15.42578,0 0,3.33311 -11.64555,0 0,9.18636 10.87325,0 0,3.29246 -10.87325,0 0,10.56837 11.64555,0 0,3.3331"
         style="fill:#ffffff;-inkscape-font-specification:Droid Sans"
         id="path3152"
         inkscape:connector-curvature="0" />
      <path
         d="m 142.40825,1001.9567 -2.45919,0 -1.03651,-21.2994 4.53221,0 -1.03651,21.2994 m -3.84121,6.1581 c 0,-0.5149 0.0678,-0.9485 0.20324,-1.3007 0.13549,-0.3659 0.31841,-0.6572 0.54875,-0.874 0.23033,-0.2303 0.50131,-0.3929 0.81295,-0.4877 0.31163,-0.1084 0.65036,-0.1626 1.01619,-0.1626 0.35227,0 0.68423,0.054 0.99587,0.1626 0.32517,0.095 0.60293,0.2574 0.83327,0.4877 0.23033,0.2168 0.41325,0.5081 0.54875,0.874 0.13548,0.3522 0.20323,0.7858 0.20324,1.3007 -1e-5,0.5013 -0.0678,0.9349 -0.20324,1.3007 -0.1355,0.3523 -0.31842,0.6436 -0.54875,0.8739 -0.23034,0.2304 -0.5081,0.3997 -0.83327,0.5081 -0.31164,0.1084 -0.6436,0.1626 -0.99587,0.1626 -0.36583,0 -0.70456,-0.054 -1.01619,-0.1626 -0.31164,-0.1084 -0.58262,-0.2777 -0.81295,-0.5081 -0.23034,-0.2303 -0.41326,-0.5216 -0.54875,-0.8739 -0.13549,-0.3658 -0.20324,-0.7994 -0.20324,-1.3007"
         style="fill:#ffffff;-inkscape-font-specification:Droid Sans"
         id="path3154"
         inkscape:connector-curvature="0" />
    </g>
    <text
       xml:space="preserve"
       style="font-size:41.44284058000000215px;font-style:normal;font-variant:normal;font-weight:normal;font-stretch:normal;line-height:125%;letter-spacing:0px;word-spacing:0px;fill:#ffffff;fill-opacity:1;stroke:none;font-family:Droid Sans;-inkscape-font-specification:Droid Sans;filter:url(#filter3140)"
       x="15"
       y="1036.3622"
       id="text3057"
       sodipodi:linespacing="125%"><tspan
         sodipodi:role="line"
         id="tspan3059"
         x="15"
         y="1036.3622"
         style="font-size:20.72142029000000107px;font-weight:bold;fill:#ffffff;-inkscape-font-specification:Droid Sans Bold">SHAKE!</tspan></text>
    <g
       transform="matrix(2.7793907,0,0,1.7352471,124.0059,915.16629)"
       id="g3922-0-1-6-4-5-0-3-7-5-1-6"
       style="color:#000000;fill:none;stroke:#ffffff;stroke-width:0.91069835;stroke-linecap:butt;stroke-linejoin:miter;stroke-miterlimit:4;stroke-opacity:1;stroke-dasharray:none;stroke-dashoffset:0;marker:none;visibility:visible;display:inline;overflow:visible;filter:url(#filter3519-3);enable-background:accumulate"
       inkscape:export-filename="L1_smaller.png"
       inkscape:export-xdpi="135"
       inkscape:export-ydpi="135">
      <path
         inkscape:export-ydpi="135"
         inkscape:export-xdpi="135"
         inkscape:export-filename="R.png"
         sodipodi:nodetypes="sccccccss"
         inkscape:connector-curvature="0"
         id="rect4891-9-83-5-7-0-1-1-4-7-4-2"
         d="m 28.51132,35.049024 c 0,-3.458408 0.410906,-6.55401 3.957702,-6.55401 l 46.772841,0 c 3.773379,0 3.957703,2.773434 3.957703,6.577796 l 0,38.189581 c 0,3.761563 -0.283499,6.522148 -3.957703,6.522148 l -46.772841,0 c -3.502602,0 -3.957702,-3.138596 -3.957702,-6.597003 z"
         style="color:#000000;fill:none;stroke:#ffffff;stroke-width:0.91069835;stroke-linecap:butt;stroke-linejoin:miter;stroke-miterlimit:4;stroke-opacity:1;stroke-dasharray:none;stroke-dashoffset:0;marker:none;visibility:visible;display:inline;overflow:visible;enable-background:accumulate" />
    </g>
  </g>
</svg>
