<?xml version="1.0" encoding="UTF-8" standalone="no"?>
<!-- Created with Inkscape (http://www.inkscape.org/) -->

<svg
   xmlns:dc="http://purl.org/dc/elements/1.1/"
   xmlns:cc="http://creativecommons.org/ns#"
   xmlns:rdf="http://www.w3.org/1999/02/22-rdf-syntax-ns#"
   xmlns:svg="http://www.w3.org/2000/svg"
   xmlns="http://www.w3.org/2000/svg"
   xmlns:sodipodi="http://sodipodi.sourceforge.net/DTD/sodipodi-0.dtd"
   xmlns:inkscape="http://www.inkscape.org/namespaces/inkscape"
   width="100"
   height="100"
   id="svg8562"
   version="1.1"
   inkscape:version="0.48.4 r9939"
   sodipodi:docname="shoulder_buttons.svg"
   inkscape:export-filename="C_pokemini.png"
   inkscape:export-xdpi="90"
   inkscape:export-ydpi="90">
  <defs
     id="defs8564">
    <filter
       id="filter10516"
       style="color-interpolation-filters:sRGB;"
       inkscape:label="Drop Shadow">
      <feFlood
         id="feFlood10518"
         flood-opacity="0.7"
         flood-color="rgb(0,0,0)"
         result="flood" />
      <feComposite
         id="feComposite10520"
         in2="SourceGraphic"
         in="flood"
         operator="in"
         result="composite1" />
      <feGaussianBlur
         id="feGaussianBlur10522"
         in="composite"
         stdDeviation="1.2"
         result="blur" />
      <feOffset
         id="feOffset10524"
         dx="0"
         dy="-2.41474e-15"
         result="offset" />
      <feComposite
         id="feComposite10526"
         in2="offset"
         in="SourceGraphic"
         operator="over"
         result="composite2" />
    </filter>
    <filter
       id="filter10528"
       style="color-interpolation-filters:sRGB;"
       inkscape:label="Drop Shadow">
      <feFlood
         id="feFlood10530"
         flood-opacity="0.7"
         flood-color="rgb(0,0,0)"
         result="flood" />
      <feComposite
         id="feComposite10532"
         in2="SourceGraphic"
         in="flood"
         operator="in"
         result="composite1" />
      <feGaussianBlur
         id="feGaussianBlur10534"
         in="composite"
         stdDeviation="1.2"
         result="blur" />
      <feOffset
         id="feOffset10536"
         dx="0"
         dy="-2.41474e-15"
         result="offset" />
      <feComposite
         id="feComposite10538"
         in2="offset"
         in="SourceGraphic"
         operator="over"
         result="composite2" />
    </filter>
    <filter
       id="filter10540"
       style="color-interpolation-filters:sRGB;"
       inkscape:label="Drop Shadow">
      <feFlood
         id="feFlood10542"
         flood-opacity="0.7"
         flood-color="rgb(0,0,0)"
         result="flood" />
      <feComposite
         id="feComposite10544"
         in2="SourceGraphic"
         in="flood"
         operator="in"
         result="composite1" />
      <feGaussianBlur
         id="feGaussianBlur10546"
         in="composite"
         stdDeviation="1.2"
         result="blur" />
      <feOffset
         id="feOffset10548"
         dx="0"
         dy="-2.41474e-15"
         result="offset" />
      <feComposite
         id="feComposite10550"
         in2="offset"
         in="SourceGraphic"
         operator="over"
         result="composite2" />
    </filter>
    <filter
       id="filter10552"
       style="color-interpolation-filters:sRGB;"
       inkscape:label="Drop Shadow">
      <feFlood
         id="feFlood10554"
         flood-opacity="0.7"
         flood-color="rgb(0,0,0)"
         result="flood" />
      <feComposite
         id="feComposite10556"
         in2="SourceGraphic"
         in="flood"
         operator="in"
         result="composite1" />
      <feGaussianBlur
         id="feGaussianBlur10558"
         in="composite"
         stdDeviation="1.2"
         result="blur" />
      <feOffset
         id="feOffset10560"
         dx="0"
         dy="-2.41474e-15"
         result="offset" />
      <feComposite
         id="feComposite10562"
         in2="offset"
         in="SourceGraphic"
         operator="over"
         result="composite2" />
    </filter>
    <filter
       id="filter10588"
       style="color-interpolation-filters:sRGB;"
       inkscape:label="Drop Shadow">
      <feFlood
         id="feFlood10590"
         flood-opacity="0.7"
         flood-color="rgb(0,0,0)"
         result="flood" />
      <feComposite
         id="feComposite10592"
         in2="SourceGraphic"
         in="flood"
         operator="in"
         result="composite1" />
      <feGaussianBlur
         id="feGaussianBlur10594"
         in="composite"
         stdDeviation="1.2"
         result="blur" />
      <feOffset
         id="feOffset10596"
         dx="0"
         dy="-2.41474e-15"
         result="offset" />
      <feComposite
         id="feComposite10598"
         in2="offset"
         in="SourceGraphic"
         operator="over"
         result="composite2" />
    </filter>
    <filter
       id="filter10600"
       style="color-interpolation-filters:sRGB;"
       inkscape:label="Drop Shadow">
      <feFlood
         id="feFlood10602"
         flood-opacity="0.7"
         flood-color="rgb(0,0,0)"
         result="flood" />
      <feComposite
         id="feComposite10604"
         in2="SourceGraphic"
         in="flood"
         operator="in"
         result="composite1" />
      <feGaussianBlur
         id="feGaussianBlur10606"
         in="composite"
         stdDeviation="1.2"
         result="blur" />
      <feOffset
         id="feOffset10608"
         dx="0"
         dy="-2.41474e-15"
         result="offset" />
      <feComposite
         id="feComposite10610"
         in2="offset"
         in="SourceGraphic"
         operator="over"
         result="composite2" />
    </filter>
    <filter
       color-interpolation-filters="sRGB"
       id="filter10528-2"
       inkscape:label="Drop Shadow">
      <feFlood
         id="feFlood10530-0"
         flood-opacity="0.7"
         flood-color="rgb(0,0,0)"
         result="flood" />
      <feComposite
         id="feComposite10532-6"
         in2="SourceGraphic"
         in="flood"
         operator="in"
         result="composite1" />
      <feGaussianBlur
         id="feGaussianBlur10534-3"
         stdDeviation="1.2"
         result="blur" />
      <feOffset
         id="feOffset10536-7"
         dx="0"
         dy="-2.41474e-15"
         result="offset" />
      <feComposite
         id="feComposite10538-3"
         in2="offset"
         in="SourceGraphic"
         operator="over"
         result="composite2" />
    </filter>
    <filter
       id="filter10705"
       style="color-interpolation-filters:sRGB;"
       inkscape:label="Drop Shadow">
      <feFlood
         id="feFlood10707"
         flood-opacity="0.7"
         flood-color="rgb(0,0,0)"
         result="flood" />
      <feComposite
         id="feComposite10709"
         in2="SourceGraphic"
         in="flood"
         operator="in"
         result="composite1" />
      <feGaussianBlur
         id="feGaussianBlur10711"
         in="composite"
         stdDeviation="1.2"
         result="blur" />
      <feOffset
         id="feOffset10713"
         dx="0"
         dy="-2.41474e-15"
         result="offset" />
      <feComposite
         id="feComposite10715"
         in2="offset"
         in="SourceGraphic"
         operator="over"
         result="composite2" />
    </filter>
    <filter
       id="filter10741"
       style="color-interpolation-filters:sRGB;"
       inkscape:label="Drop Shadow">
      <feFlood
         id="feFlood10743"
         flood-opacity="0.7"
         flood-color="rgb(0,0,0)"
         result="flood" />
      <feComposite
         id="feComposite10745"
         in2="SourceGraphic"
         in="flood"
         operator="in"
         result="composite1" />
      <feGaussianBlur
         id="feGaussianBlur10747"
         in="composite"
         stdDeviation="0.8"
         result="blur" />
      <feOffset
         id="feOffset10749"
         dx="0"
         dy="-2.41474e-15"
         result="offset" />
      <feComposite
         id="feComposite10751"
         in2="offset"
         in="SourceGraphic"
         operator="over"
         result="composite2" />
    </filter>
    <filter
       color-interpolation-filters="sRGB"
       id="filter10600-1"
       inkscape:label="Drop Shadow">
      <feFlood
         id="feFlood10602-0"
         flood-opacity="0.7"
         flood-color="rgb(0,0,0)"
         result="flood" />
      <feComposite
         id="feComposite10604-7"
         in2="SourceGraphic"
         in="flood"
         operator="in"
         result="composite1" />
      <feGaussianBlur
         id="feGaussianBlur10606-2"
         stdDeviation="1.2"
         result="blur" />
      <feOffset
         id="feOffset10608-6"
         dx="0"
         dy="-2.41474e-15"
         result="offset" />
      <feComposite
         id="feComposite10610-2"
         in2="offset"
         in="SourceGraphic"
         operator="over"
         result="composite2" />
    </filter>
    <filter
       id="filter4190"
       style="color-interpolation-filters:sRGB;"
       inkscape:label="Drop Shadow">
      <feFlood
         id="feFlood4192"
         flood-opacity="0.7"
         flood-color="rgb(0,0,0)"
         result="flood" />
      <feComposite
         id="feComposite4194"
         in2="SourceGraphic"
         in="flood"
         operator="in"
         result="composite1" />
      <feGaussianBlur
         id="feGaussianBlur4196"
         in="composite"
         stdDeviation="0.8"
         result="blur" />
      <feOffset
         id="feOffset4198"
         dx="0"
         dy="-2.41474e-15"
         result="offset" />
      <feComposite
         id="feComposite4200"
         in2="offset"
         in="SourceGraphic"
         operator="over"
         result="composite2" />
    </filter>
    <filter
       color-interpolation-filters="sRGB"
       id="filter10600-3"
       inkscape:label="Drop Shadow">
      <feFlood
         id="feFlood10602-9"
         flood-opacity="0.7"
         flood-color="rgb(0,0,0)"
         result="flood" />
      <feComposite
         id="feComposite10604-8"
         in2="SourceGraphic"
         in="flood"
         operator="in"
         result="composite1" />
      <feGaussianBlur
         id="feGaussianBlur10606-25"
         stdDeviation="1.2"
         result="blur" />
      <feOffset
         id="feOffset10608-1"
         dx="0"
         dy="-2.41474e-15"
         result="offset" />
      <feComposite
         id="feComposite10610-1"
         in2="offset"
         in="SourceGraphic"
         operator="over"
         result="composite2" />
    </filter>
    <filter
       color-interpolation-filters="sRGB"
       id="filter10528-26"
       inkscape:label="Drop Shadow">
      <feFlood
         id="feFlood10530-7"
         flood-opacity="0.7"
         flood-color="rgb(0,0,0)"
         result="flood" />
      <feComposite
         id="feComposite10532-5"
         in2="SourceGraphic"
         in="flood"
         operator="in"
         result="composite1" />
      <feGaussianBlur
         id="feGaussianBlur10534-4"
         stdDeviation="1.2"
         result="blur" />
      <feOffset
         id="feOffset10536-2"
         dx="0"
         dy="-2.41474e-15"
         result="offset" />
      <feComposite
         id="feComposite10538-5"
         in2="offset"
         in="SourceGraphic"
         operator="over"
         result="composite2" />
    </filter>
    <filter
       id="filter4438"
       style="color-interpolation-filters:sRGB;"
       inkscape:label="Drop Shadow">
      <feFlood
         id="feFlood4440"
         flood-opacity="0.7"
         flood-color="rgb(0,0,0)"
         result="flood" />
      <feComposite
         id="feComposite4442"
         in2="SourceGraphic"
         in="flood"
         operator="in"
         result="composite1" />
      <feGaussianBlur
         id="feGaussianBlur4444"
         in="composite"
         stdDeviation="1.2"
         result="blur" />
      <feOffset
         id="feOffset4446"
         dx="0"
         dy="-2.41474e-15"
         result="offset" />
      <feComposite
         id="feComposite4448"
         in2="offset"
         in="SourceGraphic"
         operator="over"
         result="composite2" />
    </filter>
    <filter
       id="filter4450"
       style="color-interpolation-filters:sRGB;"
       inkscape:label="Drop Shadow">
      <feFlood
         id="feFlood4452"
         flood-opacity="0.7"
         flood-color="rgb(0,0,0)"
         result="flood" />
      <feComposite
         id="feComposite4454"
         in2="SourceGraphic"
         in="flood"
         operator="in"
         result="composite1" />
      <feGaussianBlur
         id="feGaussianBlur4456"
         in="composite"
         stdDeviation="1.2"
         result="blur" />
      <feOffset
         id="feOffset4458"
         dx="0"
         dy="-2.41474e-15"
         result="offset" />
      <feComposite
         id="feComposite4460"
         in2="offset"
         in="SourceGraphic"
         operator="over"
         result="composite2" />
    </filter>
    <filter
       color-interpolation-filters="sRGB"
       id="filter4450-9"
       inkscape:label="Drop Shadow">
      <feFlood
         id="feFlood4452-8"
         flood-opacity="0.7"
         flood-color="rgb(0,0,0)"
         result="flood" />
      <feComposite
         id="feComposite4454-3"
         in2="SourceGraphic"
         in="flood"
         operator="in"
         result="composite1" />
      <feGaussianBlur
         id="feGaussianBlur4456-4"
         stdDeviation="1.2"
         result="blur" />
      <feOffset
         id="feOffset4458-4"
         dx="0"
         dy="-2.41474e-15"
         result="offset" />
      <feComposite
         id="feComposite4460-1"
         in2="offset"
         in="SourceGraphic"
         operator="over"
         result="composite2" />
    </filter>
    <filter
       color-interpolation-filters="sRGB"
       id="filter10528-7"
       inkscape:label="Drop Shadow">
      <feFlood
         id="feFlood10530-5"
         flood-opacity="0.7"
         flood-color="rgb(0,0,0)"
         result="flood" />
      <feComposite
         id="feComposite10532-2"
         in2="SourceGraphic"
         in="flood"
         operator="in"
         result="composite1" />
      <feGaussianBlur
         id="feGaussianBlur10534-7"
         stdDeviation="1.2"
         result="blur" />
      <feOffset
         id="feOffset10536-3"
         dx="0"
         dy="-2.41474e-15"
         result="offset" />
      <feComposite
         id="feComposite10538-54"
         in2="offset"
         in="SourceGraphic"
         operator="over"
         result="composite2" />
    </filter>
    <filter
       id="filter3153"
       style="color-interpolation-filters:sRGB;"
       inkscape:label="Drop Shadow">
      <feFlood
         id="feFlood3155"
         flood-opacity="0.7"
         flood-color="rgb(0,0,0)"
         result="flood" />
      <feComposite
         id="feComposite3157"
         in2="SourceGraphic"
         in="flood"
         operator="in"
         result="composite1" />
      <feGaussianBlur
         id="feGaussianBlur3159"
         in="composite"
         stdDeviation="1.2"
         result="blur" />
      <feOffset
         id="feOffset3161"
         dx="0"
         dy="-2.41474e-15"
         result="offset" />
      <feComposite
         id="feComposite3163"
         in2="offset"
         in="SourceGraphic"
         operator="over"
         result="composite2" />
    </filter>
    <filter
       color-interpolation-filters="sRGB"
       id="filter8444-3"
       inkscape:label="Drop Shadow">
      <feFlood
         id="feFlood8446-6"
         flood-opacity="0.7"
         flood-color="rgb(0,0,0)"
         result="flood" />
      <feComposite
         id="feComposite8448-7"
         in2="SourceGraphic"
         in="flood"
         operator="in"
         result="composite1" />
      <feGaussianBlur
         id="feGaussianBlur8450-5"
         stdDeviation="1.2"
         result="blur" />
      <feOffset
         id="feOffset8452-3"
         dx="0"
         dy="-2.41474e-15"
         result="offset" />
      <feComposite
         id="feComposite8454-5"
         in2="offset"
         in="SourceGraphic"
         operator="over"
         result="composite2" />
    </filter>
    <filter
       id="filter3201"
       style="color-interpolation-filters:sRGB;"
       inkscape:label="Drop Shadow">
      <feFlood
         id="feFlood3203"
         flood-opacity="0.7"
         flood-color="rgb(0,0,0)"
         result="flood" />
      <feComposite
         id="feComposite3205"
         in2="SourceGraphic"
         in="flood"
         operator="in"
         result="composite1" />
      <feGaussianBlur
         id="feGaussianBlur3207"
         in="composite"
         stdDeviation="1.4"
         result="blur" />
      <feOffset
         id="feOffset3209"
         dx="0"
         dy="-2.41474e-15"
         result="offset" />
      <feComposite
         id="feComposite3211"
         in2="offset"
         in="SourceGraphic"
         operator="over"
         result="composite2" />
    </filter>
  </defs>
  <sodipodi:namedview
     id="base"
     pagecolor="#ffffff"
     bordercolor="#666666"
     borderopacity="1.0"
     inkscape:pageopacity="0.0"
     inkscape:pageshadow="2"
     inkscape:zoom="5.6568542"
     inkscape:cx="-16.893304"
     inkscape:cy="56.058484"
     inkscape:document-units="px"
     inkscape:current-layer="layer1"
     showgrid="true"
     inkscape:window-width="1600"
     inkscape:window-height="847"
     inkscape:window-x="0"
     inkscape:window-y="29"
     inkscape:window-maximized="1">
    <inkscape:grid
       type="xygrid"
       id="grid8570"
       empspacing="5"
       visible="true"
       enabled="true"
       snapvisiblegridlinesonly="true" />
  </sodipodi:namedview>
  <metadata
     id="metadata8567">
    <rdf:RDF>
      <cc:Work
         rdf:about="">
        <dc:format>image/svg+xml</dc:format>
        <dc:type
           rdf:resource="http://purl.org/dc/dcmitype/StillImage" />
        <dc:title></dc:title>
      </cc:Work>
    </rdf:RDF>
  </metadata>
  <g
     inkscape:label="Layer 1"
     inkscape:groupmode="layer"
     id="layer1"
     transform="translate(0,-952.36218)">
    <path
       inkscape:connector-curvature="0"
       id="path3861"
       style="font-size:27px;font-style:normal;font-variant:normal;font-weight:normal;font-stretch:normal;line-height:125%;letter-spacing:0px;word-spacing:0px;fill:#ffffff;fill-opacity:1;stroke:none;filter:url(#filter10540);font-family:Droid Sans;-inkscape-font-specification:Droid Sans"
       d="m 72.853086,917.36217 -3.611609,0 0,-18.73472 c 0,-0.58823 0,-1.2175 0,-1.88783 0.01401,-0.67028 0.02739,-1.33376 0.0411,-1.99041 0.02739,-0.67029 0.04793,-1.30641 0.06148,-1.90836 0.02739,-0.61557 0.04793,-1.1559 0.06164,-1.62105 -0.232574,0.24626 -0.437785,0.45829 -0.615616,0.63611 -0.177848,0.17787 -0.362529,0.34886 -0.554041,0.51299 -0.177862,0.16419 -0.369377,0.34203 -0.574572,0.53353 -0.205225,0.17785 -0.451466,0.3899 -0.738736,0.63611 l -3.037038,2.48288 -1.969954,-2.52392 7.859334,-6.13542 3.078066,0 0,30.00009"
       inkscape:export-filename="L1.png"
       inkscape:export-xdpi="135"
       inkscape:export-ydpi="135" />
    <path
       inkscape:connector-curvature="0"
       id="path3816-4"
       style="font-size:28px;font-style:normal;font-weight:normal;line-height:125%;letter-spacing:0px;word-spacing:0px;fill:#ffffff;fill-opacity:1;stroke:none;filter:url(#filter10552);font-family:Sans"
       d="m 40.999768,887.36208 4.059068,0 0,26.58419 14.608613,0 0,3.4159 -18.667681,0 0,-30.00009"
       inkscape:export-filename="L1.png"
       inkscape:export-xdpi="135"
       inkscape:export-ydpi="135" />
    <g
       transform="matrix(1.7554078,0,0,1.7497098,-48.049439,870.17914)"
       id="g3922-0-1-6-4-5"
       style="color:#000000;fill:none;stroke:#ffffff;stroke-width:1.14119005000000007;stroke-linecap:butt;stroke-linejoin:miter;stroke-miterlimit:4;stroke-opacity:1;stroke-dasharray:none;stroke-dashoffset:0;marker:none;visibility:visible;display:inline;overflow:visible;enable-background:accumulate;filter:url(#filter10741)"
       inkscape:export-filename="L1.png"
       inkscape:export-xdpi="135"
       inkscape:export-ydpi="135">
      <path
         inkscape:export-ydpi="135"
         inkscape:export-xdpi="135"
         inkscape:export-filename="R.png"
         sodipodi:nodetypes="sccccccss"
         inkscape:connector-curvature="0"
         id="rect4891-9-83-5-7-0"
         d="m 31.359915,57.524203 c 0,-3.458408 3.002619,-6.55401 6.549415,-6.55401 l 35.915103,0 c 3.773379,0 6.526946,2.773434 6.526946,6.577796 l 0,36.051069 c 0,3.761563 -2.852742,6.522142 -6.526946,6.522142 l -35.915103,0 c -3.502602,0 -6.549415,-3.13859 -6.549415,-6.596997 z"
         style="color:#000000;fill:none;stroke:#ffffff;stroke-width:1.14119005000000007;stroke-linecap:butt;stroke-linejoin:miter;stroke-miterlimit:4;stroke-opacity:1;stroke-dasharray:none;stroke-dashoffset:0;marker:none;visibility:visible;display:inline;overflow:visible;enable-background:accumulate;" />
    </g>
    <path
       inkscape:connector-curvature="0"
       id="path3816-4-6"
       style="font-size:28px;font-style:normal;font-weight:normal;line-height:125%;letter-spacing:0px;word-spacing:0px;fill:#ffffff;fill-opacity:1;stroke:none;filter:url(#filter10600);font-family:Sans"
       d="m 37,787.36213 4.059062,0 0,26.58414 14.608592,0 0,3.4159 -18.667654,0 0,-30.00004"
       inkscape:export-filename="L2.png"
       inkscape:export-xdpi="135"
       inkscape:export-ydpi="135" />
    <path
       inkscape:connector-curvature="0"
       id="path3863-7-4"
       style="font-size:27px;font-style:normal;font-variant:normal;font-weight:normal;font-stretch:normal;line-height:125%;letter-spacing:0px;word-spacing:0px;fill:#ffffff;fill-opacity:1;stroke:none;filter:url(#filter10588);font-family:Droid Sans;-inkscape-font-specification:Droid Sans"
       d="m 78.196584,717.36218 -18.449622,0 0,-3.1558 7.080449,-7.7072 c 1.011477,-1.0924 1.915082,-2.0904 2.710797,-2.994 0.795685,-0.9036 1.470023,-1.7869 2.022985,-2.6501 0.566419,-0.86314 0.99799,-1.72634 1.29471,-2.58938 0.29669,-0.87665 0.445042,-1.82736 0.445058,-2.85233 -1.6e-5,-0.79565 -0.114625,-1.49699 -0.343906,-2.10383 -0.229296,-0.60684 -0.559713,-1.11937 -0.991268,-1.5374 -0.418098,-0.43153 -0.917107,-0.75525 -1.497015,-0.97106 -0.579923,-0.21572 -1.227285,-0.32362 -1.942057,-0.32362 -1.281238,0 -2.441083,0.26297 -3.479536,0.7889 -1.024981,0.51253 -2.002761,1.17337 -2.933326,1.98252 l -2.063449,-2.4073 c 0.539458,-0.48553 1.119381,-0.93733 1.739768,-1.35536 0.620387,-0.43152 1.287958,-0.8024 2.002761,-1.11262 0.714771,-0.31012 1.470023,-0.55293 2.265738,-0.72824 0.795701,-0.18881 1.631865,-0.28322 2.508508,-0.28322 1.294695,0 2.461276,0.18206 3.49976,0.54619 1.051926,0.36412 1.942043,0.89015 2.670333,1.57789 0.72826,0.67436 1.287959,1.50377 1.67908,2.48814 0.404578,0.97106 0.606883,2.07018 0.606898,3.29736 -1.5e-5,1.14637 -0.182095,2.23874 -0.54621,3.2772 -0.350672,1.03842 -0.842931,2.06336 -1.476775,3.07496 -0.620402,0.998 -1.368902,2.0027 -2.245514,3.0141 -0.863155,1.0115 -1.800472,2.0635 -2.81195,3.1557 l -5.684586,6.0487 0,0.1618 13.938369,0 0,3.358"
       inkscape:export-filename="L2.png"
       inkscape:export-xdpi="135"
       inkscape:export-ydpi="135" />
    <path
       inkscape:connector-curvature="0"
       id="path3814-0-7"
       style="font-size:28px;font-style:normal;font-weight:normal;line-height:125%;letter-spacing:0px;word-spacing:0px;fill:#ffffff;fill-opacity:1;stroke:none;filter:url(#filter10528);font-family:Sans"
       d="m 35.22627,1167.2966 c 0.870722,0.2946 1.714668,0.9243 2.531821,1.8888 0.830521,0.9645 1.661051,2.2906 2.49162,3.9786 l 4.119231,8.1982 -4.360347,0 -3.837916,-7.696 c -0.991303,-2.0093 -1.955812,-3.3423 -2.893499,-3.9986 -0.924318,-0.6564 -2.190227,-0.9847 -3.797713,-0.9847 l -4.420623,0 0,12.6793 -4.05894,0 0,-30 9.162746,0 c 3.429315,0 5.987929,0.7167 7.675821,2.15 1.687847,1.4334 2.531784,3.5968 2.531802,6.4903 -1.8e-5,1.8888 -0.442078,3.4562 -1.326177,4.702 -0.87075,1.2457 -2.143367,2.1097 -3.817826,2.5921 m -10.167426,-12.5989 0,10.6497 5.103806,0 c 1.955781,0 3.429315,-0.4487 4.420627,-1.3462 1.004681,-0.9109 1.507011,-2.2439 1.507031,-3.9987 -2e-5,-1.7549 -0.50235,-3.0744 -1.507031,-3.9585 -0.991312,-0.8975 -2.464846,-1.3463 -4.420627,-1.3463 l -5.103806,0"
       inkscape:export-filename="R2.png"
       inkscape:export-xdpi="135"
       inkscape:export-ydpi="135" />
    <path
       inkscape:connector-curvature="0"
       id="path3863-2"
       style="font-size:27px;font-style:normal;font-variant:normal;font-weight:normal;font-stretch:normal;line-height:125%;letter-spacing:0px;word-spacing:0px;fill:#ffffff;fill-opacity:1;stroke:none;filter:url(#filter10516);font-family:Droid Sans;-inkscape-font-specification:Droid Sans"
       d="m 66.449275,1181.3622 -18.44907,0 0,-3.1558 7.080239,-7.7074 c 1.01145,-1.0924 1.915021,-2.0903 2.710714,-2.9939 0.795665,-0.9035 1.469981,-1.7869 2.022927,-2.65 0.5664,-0.8631 0.997959,-1.7262 1.294668,-2.5894 0.29669,-0.8766 0.445031,-1.8273 0.44505,-2.8523 -1.9e-5,-0.7957 -0.114619,-1.497 -0.343903,-2.1039 -0.229284,-0.6068 -0.559687,-1.1193 -0.991237,-1.5374 -0.418087,-0.4315 -0.917081,-0.7552 -1.496962,-0.971 -0.579909,-0.2157 -1.227252,-0.3236 -1.942001,-0.3236 -1.281197,0 -2.441005,0.263 -3.479436,0.7889 -1.02494,0.5125 -2.002705,1.1733 -2.933229,1.9825 l -2.06339,-2.4073 c 0.539447,-0.4855 1.119347,-0.9373 1.739718,-1.3554 0.620362,-0.4315 1.287909,-0.8024 2.002696,-1.1126 0.714749,-0.3101 1.469971,-0.5529 2.265664,-0.7282 0.795684,-0.1888 1.631821,-0.2832 2.508439,-0.2832 1.294649,0 2.461198,0.182 3.499657,0.5462 1.051884,0.3641 1.941983,0.8901 2.670242,1.5778 0.72825,0.6744 1.287928,1.5038 1.679043,2.4882 0.404559,0.9711 0.606862,2.0702 0.606871,3.2974 -9e-6,1.1463 -0.18209,2.2387 -0.546196,3.2771 -0.350653,1.0385 -0.842906,2.0635 -1.47673,3.0749 -0.620381,0.998 -1.368853,2.0027 -2.245443,3.0142 -0.863127,1.0115 -1.800411,2.0633 -2.81187,3.1557 l -5.684406,6.0486 0,0.1618 13.937945,0 0,3.3581"
       inkscape:export-filename="R2.png"
       inkscape:export-xdpi="135"
       inkscape:export-ydpi="135" />
    <path
       inkscape:connector-curvature="0"
       id="path3861-4"
       style="font-size:27px;font-style:normal;font-variant:normal;font-weight:normal;font-stretch:normal;line-height:125%;letter-spacing:0px;word-spacing:0px;fill:#ffffff;fill-opacity:1;stroke:none;filter:url(#filter10705);font-family:Droid Sans;-inkscape-font-specification:Droid Sans"
       d="m 59.83674,1281.3296 -3.611503,0 0,-18.7346 c 0,-0.5882 0,-1.2175 0,-1.8878 0.01401,-0.6703 0.02739,-1.3338 0.04109,-1.9905 0.02739,-0.6703 0.04794,-1.3064 0.06148,-1.9083 0.02739,-0.6156 0.04794,-1.1559 0.06164,-1.6211 -0.232568,0.2463 -0.437772,0.4583 -0.615599,0.6361 -0.177842,0.1779 -0.362517,0.3489 -0.554024,0.513 -0.177858,0.1642 -0.369366,0.342 -0.574555,0.5335 -0.20522,0.1779 -0.451453,0.3899 -0.738715,0.6362 l -3.036949,2.4829 -1.969897,-2.524 7.859104,-6.1354 3.077978,0 0,30"
       inkscape:export-filename="R1.png"
       inkscape:export-xdpi="135"
       inkscape:export-ydpi="135" />
    <path
       inkscape:connector-curvature="0"
       id="path3814-0-7-4"
       style="font-size:28px;font-style:normal;font-weight:normal;line-height:125%;letter-spacing:0px;word-spacing:0px;fill:#ffffff;fill-opacity:1;stroke:none;filter:url(#filter10528-2);font-family:Sans"
       d="m 39.22627,1267.2966 c 0.870722,0.2946 1.714668,0.9243 2.531821,1.8888 0.830521,0.9645 1.661051,2.2906 2.49162,3.9786 l 4.119231,8.1982 -4.360347,0 -3.837916,-7.696 c -0.991303,-2.0093 -1.955812,-3.3423 -2.893499,-3.9986 -0.924318,-0.6564 -2.190227,-0.9847 -3.797713,-0.9847 l -4.420623,0 0,12.6793 -4.05894,0 0,-30 9.162746,0 c 3.429315,0 5.987929,0.7167 7.675821,2.15 1.687847,1.4334 2.531784,3.5968 2.531802,6.4903 -1.8e-5,1.8888 -0.442078,3.4562 -1.326177,4.702 -0.87075,1.2457 -2.143367,2.1097 -3.817826,2.5921 m -10.167426,-12.5989 0,10.6497 5.103806,0 c 1.955781,0 3.429315,-0.4487 4.420627,-1.3462 1.004681,-0.9109 1.507011,-2.2439 1.507031,-3.9987 -2e-5,-1.7549 -0.50235,-3.0744 -1.507031,-3.9585 -0.991312,-0.8975 -2.464846,-1.3463 -4.420627,-1.3463 l -5.103806,0"
       inkscape:export-filename="R2.png"
       inkscape:export-xdpi="135"
       inkscape:export-ydpi="135" />
    <g
       style="font-size:40px;font-style:normal;font-weight:normal;line-height:125%;letter-spacing:0px;word-spacing:0px;fill:#ffffff;fill-opacity:1;stroke:none;filter:url(#filter4190);font-family:Sans"
       id="text4601"
       transform="matrix(1.5140091,0,0,1.5140091,-842.77213,692.26586)"
       inkscape:export-filename="L3.png"
       inkscape:export-xdpi="135"
       inkscape:export-ydpi="135">
      <path
         d="m 607.66943,67.596558 c -1e-5,0.641615 -0.10108,1.226087 -0.30322,1.753418 -0.20216,0.527356 -0.4878,0.984387 -0.85693,1.371093 -0.36037,0.38673 -0.79542,0.707531 -1.30518,0.962403 -0.50977,0.246104 -1.07667,0.421885 -1.70068,0.527343 l 0,0.0791 c 1.55565,0.193369 2.73778,0.689951 3.54638,1.489746 0.80859,0.791024 1.21288,1.823737 1.2129,3.098145 -2e-5,0.843754 -0.14504,1.617191 -0.43506,2.320312 -0.28127,0.703128 -0.71193,1.309572 -1.292,1.819336 -0.58008,0.509767 -1.31397,0.905274 -2.20166,1.186523 -0.8877,0.28125 -1.93799,0.421875 -3.15087,0.421875 -0.95802,0 -1.86329,-0.07471 -2.71582,-0.224121 -0.84376,-0.149414 -1.63917,-0.421874 -2.38624,-0.817382 l 0,-2.241211 c 0.76465,0.404299 1.59082,0.716311 2.47852,0.936035 0.89648,0.219728 1.75341,0.329591 2.5708,0.32959 0.80859,10e-7 1.50732,-0.08789 2.09619,-0.263672 0.58886,-0.175779 1.07226,-0.426267 1.4502,-0.751465 0.38671,-0.325192 0.66796,-0.725094 0.84375,-1.199707 0.18456,-0.474605 0.27684,-1.006343 0.27685,-1.595215 -10e-6,-0.59765 -0.11866,-1.107415 -0.35595,-1.529297 -0.22853,-0.430656 -0.55812,-0.782219 -0.98877,-1.054687 -0.43068,-0.281242 -0.95802,-0.487785 -1.58203,-0.619629 -0.61525,-0.131827 -1.31398,-0.197745 -2.0962,-0.197754 l -1.75341,0 0,-1.990723 1.75341,0 c 0.71191,1.1e-5 1.34472,-0.08788 1.89844,-0.263672 0.5537,-0.17577 1.01513,-0.426258 1.38428,-0.751465 0.37792,-0.325183 0.66356,-0.711901 0.85693,-1.160156 0.19335,-0.448228 0.29003,-0.940415 0.29004,-1.476562 -1e-5,-0.457016 -0.0791,-0.865707 -0.2373,-1.226074 -0.15822,-0.360336 -0.38234,-0.663558 -0.67237,-0.909668 -0.29004,-0.254866 -0.63721,-0.448225 -1.0415,-0.580079 -0.40431,-0.131818 -0.85255,-0.197736 -1.34473,-0.197753 -0.94043,1.7e-5 -1.771,0.149431 -2.4917,0.448242 -0.71191,0.290056 -1.39307,0.672379 -2.04345,1.146972 l -1.21289,-1.647949 c 0.33398,-0.272443 0.70312,-0.527326 1.10742,-0.764648 0.41308,-0.237286 0.86132,-0.443829 1.34472,-0.619629 0.4834,-0.184551 0.99756,-0.329571 1.54249,-0.435059 0.5537,-0.105449 1.13817,-0.158183 1.75341,-0.158203 0.94921,2e-5 1.77978,0.118672 2.4917,0.355957 0.7207,0.237324 1.32275,0.571308 1.80615,1.001953 0.48339,0.421893 0.84814,0.927264 1.09424,1.516114 0.24608,0.580094 0.36913,1.2173 0.36914,1.911621"
         style="font-size:27px;font-variant:normal;font-stretch:normal;fill:#ffffff;fill-opacity:1;font-family:Droid Sans;-inkscape-font-specification:Droid Sans"
         id="path4606"
         inkscape:connector-curvature="0" />
    </g>
    <path
       inkscape:connector-curvature="0"
       id="path3816-4-6-7"
       style="font-size:28px;font-style:normal;font-weight:normal;line-height:125%;letter-spacing:0px;word-spacing:0px;fill:#ffffff;fill-opacity:1;stroke:none;filter:url(#filter10600-1);font-family:Sans"
       d="m 37,687.36214 4.059062,0 0,26.58414 14.608592,0 0,3.4159 -18.667654,0 0,-30.00004"
       inkscape:export-filename="L2.png"
       inkscape:export-xdpi="135"
       inkscape:export-ydpi="135" />
    <path
       inkscape:connector-curvature="0"
       id="path3816-4-6-75"
       style="font-size:28px;font-style:normal;font-weight:normal;line-height:125%;letter-spacing:0px;word-spacing:0px;fill:#ffffff;fill-opacity:1;stroke:none;filter:url(#filter10600-3);font-family:Sans"
       d="m 47,587.36214 4.059062,0 0,26.58414 14.608592,0 0,3.4159 -18.667654,0 0,-30.00004"
       inkscape:export-filename="L2.png"
       inkscape:export-xdpi="135"
       inkscape:export-ydpi="135" />
    <path
       inkscape:connector-curvature="0"
       id="path3814-0-7-40"
       style="font-size:28px;font-style:normal;font-weight:normal;line-height:125%;letter-spacing:0px;word-spacing:0px;fill:#ffffff;fill-opacity:1;stroke:none;filter:url(#filter10528-26);font-family:Sans"
       d="m 46.22627,1367.2966 c 0.870722,0.2946 1.714668,0.9243 2.531821,1.8888 0.830521,0.9645 1.661051,2.2906 2.49162,3.9786 l 4.119231,8.1982 -4.360347,0 -3.837916,-7.696 c -0.991303,-2.0093 -1.955812,-3.3423 -2.893499,-3.9986 -0.924318,-0.6564 -2.190227,-0.9847 -3.797713,-0.9847 l -4.420623,0 0,12.6793 -4.05894,0 0,-30 9.162746,0 c 3.429315,0 5.987929,0.7167 7.675821,2.15 1.687847,1.4334 2.531784,3.5968 2.531802,6.4903 -1.8e-5,1.8888 -0.442078,3.4562 -1.326177,4.702 -0.87075,1.2457 -2.143367,2.1097 -3.817826,2.5921 m -10.167426,-12.5989 0,10.6497 5.103806,0 c 1.955781,0 3.429315,-0.4487 4.420627,-1.3462 1.004681,-0.9109 1.507011,-2.2439 1.507031,-3.9987 -2e-5,-1.7549 -0.50235,-3.0744 -1.507031,-3.9585 -0.991312,-0.8975 -2.464846,-1.3463 -4.420627,-1.3463 l -5.103806,0"
       inkscape:export-filename="R2.png"
       inkscape:export-xdpi="135"
       inkscape:export-ydpi="135" />
    <g
       transform="matrix(1.724703,0,0,1.7237619,74.91346,872.77707)"
       id="g3922-0-1-6-4-5-9"
       style="color:#000000;fill:none;stroke:#ffffff;stroke-width:1.15993643;stroke-linecap:butt;stroke-linejoin:miter;stroke-miterlimit:4;stroke-opacity:1;stroke-dasharray:none;stroke-dashoffset:0;marker:none;visibility:visible;display:inline;overflow:visible;enable-background:accumulate"
       inkscape:export-filename="L1_down.png"
       inkscape:export-xdpi="135"
       inkscape:export-ydpi="135">
      <path
         inkscape:export-ydpi="135"
         inkscape:export-xdpi="135"
         inkscape:export-filename="R.png"
         sodipodi:nodetypes="sccccccss"
         inkscape:connector-curvature="0"
         id="rect4891-9-83-5-7-0-6"
         d="m 31.359915,56.78433 c 0,-3.458408 3.002619,-6.55401 6.549415,-6.55401 l 35.915103,0 c 3.773379,0 6.526946,2.773434 6.526946,6.577796 l 0,36.790942 c 0,3.761563 -2.852742,6.522142 -6.526946,6.522142 l -35.915103,0 c -3.502602,0 -6.549415,-3.13859 -6.549415,-6.596997 z"
         style="color:#000000;fill:none;stroke:#ffffff;stroke-width:1.15993643;stroke-linecap:butt;stroke-linejoin:miter;stroke-miterlimit:4;stroke-opacity:1;stroke-dasharray:none;stroke-dashoffset:0;marker:none;visibility:visible;display:inline;overflow:visible;enable-background:accumulate" />
    </g>
    <path
       inkscape:connector-curvature="0"
       id="path3861-8"
       style="font-size:27px;font-style:normal;font-variant:normal;font-weight:normal;font-stretch:normal;line-height:125%;letter-spacing:0px;word-spacing:0px;fill:#ffffff;fill-opacity:1;stroke:none;filter:url(#filter4438);font-family:Droid Sans;-inkscape-font-specification:Droid Sans"
       d="m -98.413146,1010.3622 -3.611604,0 0,-18.73472 c 0,-0.58823 0,-1.2175 0,-1.88783 0.014,-0.67028 0.0274,-1.33376 0.0411,-1.99041 0.0274,-0.67029 0.0479,-1.30641 0.0615,-1.90836 0.0274,-0.61557 0.0479,-1.1559 0.0616,-1.62105 -0.23258,0.24626 -0.43779,0.45829 -0.61562,0.63611 -0.17785,0.17787 -0.36253,0.34886 -0.55404,0.51299 -0.17786,0.16419 -0.36938,0.34203 -0.57457,0.53353 -0.20523,0.17785 -0.45147,0.3899 -0.73874,0.63611 l -3.03704,2.48288 -1.96995,-2.52392 7.85933,-6.13542 3.078068,0 0,30.00009"
       inkscape:export-filename="L1.png"
       inkscape:export-xdpi="135"
       inkscape:export-ydpi="135" />
    <path
       inkscape:connector-curvature="0"
       id="path3816-4-3"
       style="font-size:28px;font-style:normal;font-weight:normal;line-height:125%;letter-spacing:0px;word-spacing:0px;fill:#ffffff;fill-opacity:1;stroke:none;filter:url(#filter4450);font-family:Sans"
       d="m -237.26623,980.36211 4.05907,0 0,26.58419 14.60861,0 0,3.4159 -18.66768,0 0,-30.00009"
       inkscape:export-filename="L1.png"
       inkscape:export-xdpi="135"
       inkscape:export-ydpi="135" />
    <path
       inkscape:connector-curvature="0"
       id="path3816-4-3-9"
       style="font-size:28px;font-style:normal;font-weight:normal;line-height:125%;letter-spacing:0px;word-spacing:0px;fill:#ffffff;fill-opacity:1;stroke:none;filter:url(#filter4450-9);font-family:Sans"
       d="m -130.26623,980.36211 4.05907,0 0,26.58419 14.60861,0 0,3.4159 -18.66768,0 0,-30.00009"
       inkscape:export-filename="L1.png"
       inkscape:export-xdpi="135"
       inkscape:export-ydpi="135" />
    <path
       inkscape:connector-curvature="0"
       id="path3814-0-7-3"
       style="font-size:28px;font-style:normal;font-weight:normal;line-height:125%;letter-spacing:0px;word-spacing:0px;fill:#ffffff;fill-opacity:1;stroke:none;filter:url(#filter10528-7);font-family:Sans"
       d="m 154.22627,996.2966 c 0.87072,0.2946 1.71467,0.9243 2.53182,1.8888 0.83052,0.9645 1.66105,2.2906 2.49162,3.9786 l 4.11923,8.1982 -4.36035,0 -3.83791,-7.696 c -0.9913,-2.0093 -1.95581,-3.3423 -2.8935,-3.9986 -0.92432,-0.6564 -2.19023,-0.9847 -3.79771,-0.9847 l -4.42063,0 0,12.6793 -4.05894,0 0,-30 9.16275,0 c 3.42931,0 5.98793,0.7167 7.67582,2.15 1.68785,1.4334 2.53178,3.5968 2.5318,6.4903 -2e-5,1.8888 -0.44208,3.4562 -1.32617,4.702 -0.87075,1.2457 -2.14337,2.1097 -3.81783,2.5921 m -10.16743,-12.5989 0,10.6497 5.10381,0 c 1.95578,0 3.42931,-0.4487 4.42063,-1.3462 1.00468,-0.9109 1.50701,-2.2439 1.50703,-3.9987 -2e-5,-1.7549 -0.50235,-3.0744 -1.50703,-3.9585 -0.99132,-0.8975 -2.46485,-1.3463 -4.42063,-1.3463 l -5.10381,0"
       inkscape:export-filename="R2.png"
       inkscape:export-xdpi="135"
       inkscape:export-ydpi="135" />
    <text
       xml:space="preserve"
       style="font-size:40px;font-style:normal;font-variant:normal;font-weight:normal;font-stretch:normal;line-height:125%;letter-spacing:0px;word-spacing:0px;fill:#000000;fill-opacity:1;stroke:none;font-family:Droid Sans;-inkscape-font-specification:Droid Sans"
       x="185.96909"
       y="29.289322"
       id="text3106"
       sodipodi:linespacing="125%"
       transform="translate(0,952.36218)"><tspan
         sodipodi:role="line"
         id="tspan3108" /></text>
    <path
       inkscape:connector-curvature="0"
       id="path4467"
       style="font-size:27px;font-style:normal;font-weight:normal;line-height:125%;letter-spacing:0px;word-spacing:0px;fill:#ffffff;fill-opacity:1;stroke:none;filter:url(#filter3153);font-family:Sans"
       d="m -32.639424,980.36221 23.5699709,0 0,3.09433 -18.9684879,23.48976 19.4306369,0 0,3.4159 -24.4942689,0 0,-3.0945 18.968488,-23.48959 -18.506339,0 0,-3.41591"
       inkscape:export-filename="/home/sergio/Projects/libretro/overlays/common-overlays/gamepads/flat2/Z_.png"
       inkscape:export-xdpi="135.57048"
       inkscape:export-ydpi="135.57048" />
    <path
       inkscape:connector-curvature="0"
       id="path4461"
       style="font-size:27px;font-style:normal;font-weight:normal;line-height:125%;letter-spacing:0px;word-spacing:0px;fill:#ffffff;fill-opacity:1;stroke:none;filter:url(#filter3201);font-family:Sans"
       d="m 55.13936,990.11228 0,4.1253 c -1.307565,-1.2266 -2.704847,-2.1433 -4.191828,-2.7503 -1.474223,-0.6067 -3.044554,-0.9101 -4.71101,-0.9102 -3.281704,10e-5 -5.794242,1.0137 -7.537623,3.0407 -1.743398,2.0143 -2.615105,4.9323 -2.615088,8.75402 -1.7e-5,3.8089 0.87169,6.727 2.615088,8.7541 1.743381,2.0142 4.255919,3.0213 7.537623,3.0213 1.666456,0 3.236787,-0.3034 4.71101,-0.9102 1.486981,-0.6069 2.884263,-1.5236 4.191828,-2.7502 l 0,4.0865 c -1.358849,0.9296 -2.800997,1.6269 -4.326436,2.0917 -1.512656,0.4648 -3.115046,0.6972 -4.807143,0.6972 -4.345678,0 -7.768356,-1.3363 -10.268095,-4.009 -2.499721,-2.6856 -3.749561,-6.3461 -3.749561,-10.9814 0,-4.64812 1.249857,-8.30862 3.749561,-10.98122 2.499739,-2.6857 5.922417,-4.0284 10.268095,-4.0284 1.717739,0 3.332937,0.2323 4.845618,0.6972 1.525439,0.4519 2.954771,1.1361 4.287977,2.0529"
       inkscape:export-filename="/home/sergio/Projects/libretro/overlays/common-overlays/gamepads/flat2/C.png"
       inkscape:export-xdpi="149"
       inkscape:export-ydpi="149" />
  </g>
</svg>
